<svg id="Layer_1" data-name="Layer 1" xmlns="http://www.w3.org/2000/svg" xmlns:xlink="http://www.w3.org/1999/xlink" viewBox="0 0 630 40"><defs><style>.cls-1{fill:url(#linear-gradient);}.cls-2{fill:#2b2869;}.cls-3{fill:url(#linear-gradient-2);}.cls-4{fill:url(#linear-gradient-3);}.cls-5{fill:url(#linear-gradient-4);}.cls-6{fill:url(#linear-gradient-5);}.cls-7{fill:url(#linear-gradient-6);}.cls-8{fill:url(#linear-gradient-7);}</style><linearGradient id="linear-gradient" x1="2.17" y1="82.15" x2="2.2" y2="82.15" gradientTransform="translate(632.2 82.2) rotate(180)" gradientUnits="userSpaceOnUse"><stop offset="0" stop-color="#4e50a2"/><stop offset="0.5" stop-color="#6e6bb1"/><stop offset="1" stop-color="#4e50a2"/></linearGradient><linearGradient id="linear-gradient-2" x1="2.54" y1="67.28" x2="53.86" y2="67.28" xlink:href="#linear-gradient"/><linearGradient id="linear-gradient-3" x1="11.09" y1="69.65" x2="55.21" y2="57.83" gradientTransform="translate(632.2 82.2) rotate(180)" gradientUnits="userSpaceOnUse"><stop offset="0" stop-color="#2d2b70"/><stop offset="0.47" stop-color="#4e50a2"/><stop offset="0.68" stop-color="#6e6bb1"/><stop offset="1" stop-color="#2d2b70"/></linearGradient><linearGradient id="linear-gradient-4" x1="632.13" y1="82.15" x2="632.17" y2="82.15" xlink:href="#linear-gradient"/><linearGradient id="linear-gradient-5" x1="580.47" y1="67.28" x2="631.79" y2="67.28" xlink:href="#linear-gradient"/><linearGradient id="linear-gradient-6" x1="578.37" y1="71.63" x2="624.06" y2="59.38" xlink:href="#linear-gradient-3"/><linearGradient id="linear-gradient-7" x1="13.44" y1="60.09" x2="620.87" y2="60.09" gradientTransform="translate(632.2 82.2) rotate(180)" gradientUnits="userSpaceOnUse"><stop offset="0" stop-color="#4e50a2"/><stop offset="0.4" stop-color="#6e6bb1"/><stop offset="0.6" stop-color="#7b79b9"/><stop offset="1" stop-color="#4e50a2"/></linearGradient></defs><title>base</title><path class="cls-1" d="M630,0h0Z" transform="translate(0 0)"/><path class="cls-2" d="M630,0h0Zm0,0h0Z" transform="translate(0 0)"/><path class="cls-3" d="M578.4,29.3c1.1-1.6,4.4-7.2,4.4-13.7S579.2,3,578.3,1.7c2.9-.3,24.4-.7,34.1-.7,5.9,0,14.4-.2,17-.6A26.2,26.2,0,0,0,625,14.1c0,6.9,3.7,12.8,4.6,14-1.3.3-7.9.6-17.2.6C606.5,28.7,582.8,28.9,578.4,29.3Z" transform="translate(0 0)"/><path class="cls-2" d="M628.9.8a26.2,26.2,0,0,0-4.1,13.3,26.3,26.3,0,0,0,4.4,13.8c-1.9.3-8.2.5-16.8.5-.3,0-27.2.1-33.5.6a26.5,26.5,0,0,0,4.2-13.5,26.3,26.3,0,0,0-4.4-13.7c4.1-.3,24.5-.6,33.6-.6.6,0,12.3,0,16.5-.5M630,0h0Zm0,0c-.5.4-8.2.7-17.6.7s-34.5.3-34.5.8,4.7,6.3,4.7,14.1-4.5,13.7-4.7,14.1,24.9-.7,34.5-.7,17.6-.3,17.6-.8-4.7-6.3-4.7-14.1S629.6.6,630,0ZM577.9,29.7h0Z" transform="translate(0 0)"/><path class="cls-4" d="M578.3,29.5c1-1.4,4.5-7.1,4.5-13.9A26.2,26.2,0,0,0,578.5,2c2.4.4,9.9.6,17,.6,15.7,0,22.4.3,23.2,1.2s.1.2.1.4h0c-.5.7-4.7,6.8-4.7,14.2s3.6,15,4.5,16.9Z" transform="translate(0 0)"/><path class="cls-2" d="M579,2.3c4.1.5,15.9.5,16.5.5,15.2,0,22.3.3,23,1.1s0,0,0,.1a26.4,26.4,0,0,0-4.7,14.3c0,6.5,3.2,14.1,4.4,16.6l-39.4-5.6a26.3,26.3,0,0,0,4.4-13.7A26.3,26.3,0,0,0,579,2.3m-1.1-.8h0Zm0,0c.4.6,4.7,6.7,4.7,14s-4.7,14.1-4.7,14.1L619,35.5s-4.7-9.5-4.7-17.2S619,4.2,619,4.2s.8-1.9-23.5-1.9c-9.3,0-17-.3-17.6-.7Z" transform="translate(0 0)"/><path class="cls-5" d="M0,0H0Z" transform="translate(0 0)"/><path class="cls-2" d="M0,0H0Z" transform="translate(0 0)"/><path class="cls-6" d="M51.6,29.3c-4.4-.4-28.1-.7-34-.7-9.4,0-15.9-.3-17.2-.6C1.2,26.8,5,21,5,14.1A26.2,26.2,0,0,0,.6.4c2.6.4,11.1.6,17,.6,9.7,0,31.2.3,34.1.7-.9,1.4-4.6,7.1-4.6,13.9S50.5,27.7,51.6,29.3Z" transform="translate(0 0)"/><path class="cls-2" d="M1.1.8c4.1.5,15.9.5,16.5.5,9.2,0,29.6.3,33.6.6a26.3,26.3,0,0,0-4.4,13.7,26.5,26.5,0,0,0,4.2,13.5c-6.3-.5-33.2-.6-33.5-.6C9,28.4,2.7,28.2.8,27.9A26.3,26.3,0,0,0,5.2,14.1,26.2,26.2,0,0,0,1.1.8M0,0c.4.5,4.7,6.6,4.7,14S0,28.2,0,28.2s7.9.8,17.6.8,33.9.3,34.5.7-4.7-6.5-4.7-14.1S52.1,1.5,52.1,1.5,27.3.8,17.6.8.6.4,0,0ZM52.1,29.7h0Z" transform="translate(0 0)"/><path class="cls-7" d="M11.4,35.2c.9-1.9,4.5-10.1,4.5-16.9S11.8,4.8,11.2,4.1h0c0-.2,0-.3.1-.4s7.5-1.2,23.2-1.2c7.1,0,14.6-.2,17-.6a26.2,26.2,0,0,0-4.4,13.6c0,6.8,3.6,12.5,4.5,13.9Z" transform="translate(0 0)"/><path class="cls-2" d="M51,2.3a26.3,26.3,0,0,0-4.1,13.3,26.3,26.3,0,0,0,4.4,13.7L11.9,34.9c1.2-2.5,4.4-10.1,4.4-16.6A26.4,26.4,0,0,0,11.5,4c0-.1,0-.1,0-.1s7.8-1.1,23-1.1c.6,0,12.4,0,16.5-.5m1.1-.8h0Zm0,0h0Zm0,0c-.6.4-8.2.7-17.6.7C10.2,2.3,11,3.1,11,4.2s4.7,6.3,4.7,14.1S11,35.5,11,35.5l41.1-5.8s-4.7-6.3-4.7-14.1,4.3-13.4,4.7-14Z" transform="translate(0 0)"/><path class="cls-8" d="M315,39.8c-62.9,0-297.8-.7-303.7-4.3.6-1.2,4.7-10,4.7-17.2S12.5,5.9,11.5,4.4C93.3,5.7,264.4,5.8,315,5.8c56.2,0,243.9-.1,303.5-1.4-1,1.5-4.5,7.2-4.5,13.8s4.2,16.3,4.7,17.3C614.4,39,378.2,39.8,315,39.8Z" transform="translate(0 0)"/><path class="cls-2" d="M12,4.7C94,6,264.5,6.1,315,6.1c56.1,0,242.9-.1,303-1.4a26.2,26.2,0,0,0-4.3,13.6c0,7,3.7,15.2,4.6,17.1-10.1,3.5-241.3,4.2-303.4,4.2S21.8,38.8,11.6,35.3c.9-1.9,4.6-10.1,4.6-17.1A26.2,26.2,0,0,0,12,4.7m607-.5h0Zm0,0C555.3,5.6,339.3,5.6,315,5.6S99,5.6,11,4.2c0,0,4.7,6.3,4.7,14.1S11,35.5,11,35.5C11,39.6,290.7,40,315,40s304-.4,304-4.5c0,0-4.7-9.5-4.7-17.2S619,4.2,619,4.2Z" transform="translate(0 0)"/></svg>