<?xml version="1.0" encoding="utf-8"?>
<!-- Generator: Adobe Illustrator 17.0.0, SVG Export Plug-In . SVG Version: 6.00 Build 0)  -->
<!DOCTYPE svg PUBLIC "-//W3C//DTD SVG 1.1 Tiny//EN" "http://www.w3.org/Graphics/SVG/1.1/DTD/svg11-tiny.dtd">
<svg version="1.1" baseProfile="tiny" id="Layer_1" xmlns="http://www.w3.org/2000/svg" xmlns:xlink="http://www.w3.org/1999/xlink"
	 x="0px" y="0px" width="20px" height="20px" viewBox="0 0 20 20" xml:space="preserve">
<g>
	<polygon fill="#FFFF00" points="10,14.346 5.017,17.813 6.775,12.002 1.938,8.335 8.007,8.211 10,2.478 11.993,8.211 18.062,8.335 
		13.225,12.002 14.983,17.813 	"/>
	<path fill="#231F20" d="M10,4.001l1.407,4.047l0.228,0.657l0.696,0.014l4.283,0.087L13.2,11.394l-0.555,0.42l0.201,0.666
		l1.241,4.101l-3.516-2.447L10,13.737l-0.571,0.397l-3.516,2.447l1.241-4.101l0.202-0.666L6.8,11.394L3.386,8.806l4.283-0.087
		l0.696-0.014l0.228-0.657L10,4.001 M10,0.955L7.649,7.719L0.489,7.865l5.706,4.326l-2.074,6.854L10,14.955l5.878,4.09l-2.074-6.854
		l5.706-4.326l-7.159-0.146L10,0.955L10,0.955z"/>
</g>
</svg>
