<?xml version="1.0" encoding="utf-8"?>
<!-- Generator: Adobe Illustrator 17.1.0, SVG Export Plug-In . SVG Version: 6.00 Build 0)  -->
<!DOCTYPE svg PUBLIC "-//W3C//DTD SVG 1.1//EN" "http://www.w3.org/Graphics/SVG/1.1/DTD/svg11.dtd">
<svg version="1.1"
	 id="svg8" sodipodi:docname="info.svg" inkscape:export-filename="/Users/seanfitzpatrick/Documents/Sean/portfolio_20/images/info.png" inkscape:export-xdpi="96" inkscape:export-ydpi="96" inkscape:version="1.0 (4035a4f, 2020-05-01)" xmlns:sodipodi="http://sodipodi.sourceforge.net/DTD/sodipodi-0.dtd" xmlns:svg="http://www.w3.org/2000/svg" xmlns:rdf="http://www.w3.org/1999/02/22-rdf-syntax-ns#" xmlns:inkscape="http://www.inkscape.org/namespaces/inkscape" xmlns:dc="http://purl.org/dc/elements/1.1/" xmlns:cc="http://creativecommons.org/ns#"
	 xmlns="http://www.w3.org/2000/svg" xmlns:xlink="http://www.w3.org/1999/xlink" x="0px" y="0px" viewBox="0 0 40 40"
	 enable-background="new 0 0 40 40" xml:space="preserve">
<sodipodi:namedview  inkscape:pageopacity="0.0" inkscape:pageshadow="2" inkscape:snap-global="true" inkscape:window-maximized="0" inkscape:document-units="px" inkscape:window-width="1917" inkscape:current-layer="layer1" inkscape:window-height="1035" inkscape:window-x="3" inkscape:window-y="23" inkscape:document-rotation="0" inkscape:cx="-8.5933007" units="px" inkscape:cy="13.492409" showgrid="false" id="base" pagecolor="#ffffff" inkscape:zoom="6.8821289" bordercolor="#666666" borderopacity="1.0">
	</sodipodi:namedview>
<g>
	<polygon fill="#555555" points="21.8,13 15,13 15,16.5 18,16.5 18,30.5 15,30.5 15,34 25,34 25,30.5 21.8,30.5 	"/>
	<path fill="#555555" d="M18.1,10.6c0.2,0.2,0.5,0.4,0.8,0.6c0.3,0.1,0.7,0.2,1,0.2c0.4,0,0.7-0.1,1-0.2c0.3-0.1,0.6-0.3,0.8-0.6
		c0.2-0.2,0.4-0.5,0.6-0.9c0.1-0.3,0.2-0.7,0.2-1c0-0.4-0.1-0.7-0.2-1c-0.1-0.3-0.3-0.6-0.6-0.8c-0.2-0.2-0.5-0.4-0.8-0.6
		C20.7,6.1,20.3,6,20,6c-0.4,0-0.7,0.1-1,0.2c-0.3,0.1-0.6,0.3-0.8,0.6c-0.2,0.2-0.4,0.5-0.6,0.8c-0.1,0.3-0.2,0.7-0.2,1
		c0,0.4,0.1,0.7,0.2,1C17.7,10,17.9,10.3,18.1,10.6z"/>
	<path fill="#555555" d="M20,1C9.5,1,1,9.5,1,20c0,10.5,8.5,19,19,19c10.5,0,19-8.5,19-19C39,9.5,30.5,1,20,1z M20,38
		c-9.9,0-18-8.1-18-18S10.1,2,20,2s18,8.1,18,18S29.9,38,20,38z"/>
</g>
</svg>
