<?xml version="1.0" encoding="utf-8"?>
<!-- Generator: Adobe Illustrator 27.2.0, SVG Export Plug-In . SVG Version: 6.00 Build 0)  -->
<svg version="1.1"
	 id="svg887" xmlns:rdf="http://www.w3.org/1999/02/22-rdf-syntax-ns#" xmlns:dc="http://purl.org/dc/elements/1.1/" xmlns:inkscape="http://www.inkscape.org/namespaces/inkscape" xmlns:cc="http://creativecommons.org/ns#" xmlns:svg="http://www.w3.org/2000/svg" xmlns:sodipodi="http://sodipodi.sourceforge.net/DTD/sodipodi-0.dtd"
	 xmlns="http://www.w3.org/2000/svg" xmlns:xlink="http://www.w3.org/1999/xlink" x="0px" y="0px" viewBox="0 0 28 28"
	 style="enable-background:new 0 0 28 28;" xml:space="preserve">
<style type="text/css">
	.st0{fill:#FAFAFF;}
</style>
<sodipodi:namedview  bordercolor="#666666" borderopacity="1" gridtolerance="10" guidetolerance="10" id="namedview889" inkscape:current-layer="svg887" inkscape:cx="17" inkscape:cy="17" inkscape:pageopacity="0" inkscape:pageshadow="2" inkscape:window-height="1035" inkscape:window-maximized="0" inkscape:window-width="1853" inkscape:window-x="6" inkscape:window-y="23" inkscape:zoom="19.647059" objecttolerance="10" pagecolor="#ffffff" showgrid="false">
	</sodipodi:namedview>
<g id="g885" transform="scale(1.0588235)">
	<path id="path883" class="st0" d="M26.4,1.9v22.6c0,1.1-0.9,1.9-1.9,1.9H1.9c-1.1,0-1.9-0.9-1.9-1.9V1.9C0,0.9,0.9,0,1.9,0h22.6
		C25.6,0,26.4,0.9,26.4,1.9z M7.8,10.1H3.9v12.4h3.9V10.1z M8.1,5.8c0-1.2-1-2.2-2.2-2.3c0,0,0,0,0,0H5.8c-1.2,0-2.3,1-2.3,2.3
		c0,1.2,1,2.3,2.3,2.3l0,0C7.1,8.1,8.1,7.1,8.1,5.8C8.1,5.9,8.1,5.9,8.1,5.8L8.1,5.8z M22.6,15c0-3.7-2.4-5.2-4.7-5.2
		c-1.6-0.1-3.1,0.7-3.9,2h-0.1v-1.7h-3.7v12.4H14v-6.6c-0.1-1.4,0.9-2.7,2.3-2.8h0.1c1.2,0,2.2,0.8,2.2,2.7v6.7h3.9L22.6,15z"/>
</g>
</svg>
