<?xml version="1.0" encoding="UTF-8" standalone="no"?>
<svg
   xmlns:dc="http://purl.org/dc/elements/1.1/"
   xmlns:cc="http://creativecommons.org/ns#"
   xmlns:rdf="http://www.w3.org/1999/02/22-rdf-syntax-ns#"
   xmlns:svg="http://www.w3.org/2000/svg"
   xmlns="http://www.w3.org/2000/svg"
   xmlns:sodipodi="http://sodipodi.sourceforge.net/DTD/sodipodi-0.dtd"
   xmlns:inkscape="http://www.inkscape.org/namespaces/inkscape"
   inkscape:version="1.0 (4035a4f, 2020-05-01)"
   inkscape:export-ydpi="96"
   inkscape:export-xdpi="96"
   inkscape:export-filename="/Users/seanfitzpatrick/Documents/Sean/portfolio_20/images/li.png"
   sodipodi:docname="li.svg"
   id="svg887"
   version="1.1"
   class="global-nav__logo"
   viewBox="0 0 36 36"
   height="36"
   width="36">
  <metadata
     id="metadata893">
    <rdf:RDF>
      <cc:Work
         rdf:about="">
        <dc:format>image/svg+xml</dc:format>
        <dc:type
           rdf:resource="http://purl.org/dc/dcmitype/StillImage" />
        <dc:title>LinkedIn</dc:title>
      </cc:Work>
    </rdf:RDF>
  </metadata>
  <defs
     id="defs891" />
  <sodipodi:namedview
     inkscape:current-layer="svg887"
     inkscape:window-maximized="0"
     inkscape:window-y="23"
     inkscape:window-x="6"
     inkscape:cy="17"
     inkscape:cx="17"
     inkscape:zoom="19.647059"
     showgrid="false"
     id="namedview889"
     inkscape:window-height="1035"
     inkscape:window-width="1853"
     inkscape:pageshadow="2"
     inkscape:pageopacity="0"
     guidetolerance="10"
     gridtolerance="10"
     objecttolerance="10"
     borderopacity="1"
     bordercolor="#666666"
     pagecolor="#ffffff" />
  <title
     id="title881">LinkedIn</title>
  <g
     transform="scale(1.0588235)"
     id="g885">
    <!---->
    <path
       id="path883"
       fill="currentColor"
       d="m 34,2.5 v 29 A 2.5,2.5 0 0 1 31.5,34 H 2.5 A 2.5,2.5 0 0 1 0,31.5 V 2.5 A 2.5,2.5 0 0 1 2.5,0 h 29 A 2.5,2.5 0 0 1 34,2.5 Z M 10,13 H 5 v 16 h 5 z M 10.45,7.5 A 2.88,2.88 0 0 0 7.59,4.6 H 7.5 a 2.9,2.9 0 0 0 0,5.8 v 0 A 2.88,2.88 0 0 0 10.45,7.59 Z M 29,19.28 C 29,14.47 25.94,12.6 22.9,12.6 a 5.7,5.7 0 0 0 -5.06,2.58 H 17.7 V 13 H 13 v 16 h 5 v -8.51 a 3.32,3.32 0 0 1 3,-3.58 h 0.19 c 1.59,0 2.77,1 2.77,3.52 V 29 h 5 z" />
  </g>
</svg>
