<?xml version="1.0" encoding="utf-8"?>
<!-- Generator: Adobe Illustrator 17.1.0, SVG Export Plug-In . SVG Version: 6.00 Build 0)  -->
<!DOCTYPE svg PUBLIC "-//W3C//DTD SVG 1.1//EN" "http://www.w3.org/Graphics/SVG/1.1/DTD/svg11.dtd">
<svg version="1.1" id="Layer_1" xmlns="http://www.w3.org/2000/svg" xmlns:xlink="http://www.w3.org/1999/xlink" x="0px" y="0px"
	 viewBox="0 0 60 60" enable-background="new 0 0 60 60" xml:space="preserve">
<linearGradient id="SVGID_1_" gradientUnits="userSpaceOnUse" x1="8.7868" y1="8.7868" x2="51.2132" y2="51.2132">
	<stop  offset="0" style="stop-color:#FFEB99"/>
	<stop  offset="1" style="stop-color:#806600"/>
</linearGradient>
<circle fill="url(#SVGID_1_)" cx="30" cy="30" r="30"/>
<g>
	<circle fill="#FFCC00" cx="30" cy="30" r="29.1"/>
	<g>
		<defs>
			<circle id="SVGID_2_" cx="30" cy="30" r="29.1"/>
		</defs>
		<clipPath id="SVGID_3_">
			<use xlink:href="#SVGID_2_"  overflow="visible"/>
		</clipPath>
		<g clip-path="url(#SVGID_3_)">
			<g>
				<g>
					<g>
						<path fill="#DBAA73" d="M7.7,105.8c0,0,1.2,19.9,1.3,22.6c0.1,2.6-1.1,7.2-1.1,8.2c0,1,2,8.4,2.7,10.2s1.2,3,1.5,3.5
							s1.7,0.3,1.5-1.5c0,0,0,0,0.1,0.1c0.1,1,1.3,2,1.6,0.4c0,0,0.1-0.4,0.1-0.4c0.2,0.6,1.4,0.9,1.3-0.7c-0.1-1.8-0.6-20-0.6-20
							l0.6-21.8L7.7,105.8z"/>
						<path fill="#E9CAAD" d="M14,111.1c-4.3,1.7-4.6,14.6-4.5,17.3c0.1,2.6-1,7.2-1,8.2c0,1,1.6,8.4,2.4,10.2s1,2.8,1.3,3.3
							c0.3,0.5,1.6,0.3,1.3-1.4c0,0-0.1-0.8-0.5-1.8c-0.3-0.8-1.1-1-1.1-1c0.1-0.3,0.8,0,0.8,0c-0.1-0.5-0.2-0.7-0.2-0.9
							c0,0,0.4,0.1,0.4,0.1c0.2,1.3,0.9,3.6,0.9,3.6c0.1,1,1.2,2,1.5,0.5c0,0-0.1-1.8-0.7-3.1c-0.1-0.3-0.5-0.6-0.8-0.7
							c0.2-0.2,0.6,0,0.6,0c-0.1-0.5-0.2-0.9-0.2-1.2c0,0,0.2-0.3,0.2-0.3c0,0,0.9,4.4,0.9,4.4c0.2,0.6,1.3,1.2,1.2-0.4
							c0-0.3-0.3-1.2-0.5-2.3c0-0.2-0.5-0.6-0.9-0.7c0,0,0.2-0.3,0.7-0.3c-0.3-1.7-0.4-3.9,0.1-6.2c0.1-0.6,0.3-1.3,0.2-1.9
							c-0.3-4.5-1.8-5-1.8-5C12.4,129,14,111.1,14,111.1L14,111.1z"/>
						<path fill="#DBAA73" d="M10.7,136.4c0,0,0,1,0.1,2c0,0.1-0.9-0.9-0.9-0.8c0,0,1,1.7,1,1.8c0.1,0.5,0.1,1,0.3,1.2
							c0.4,0.6,1,1.9,1,2.4c0,0.5,0,1.9,0.3,2.2c0.2,0.3,1.5,0.4,2-0.5c0.5-1.1,0.2-3.4,0.5-4c0.3-0.6,0.8-2.2,0.8-2.2
							s-1.3,1.3-1.3,2.1c0.1,2-0.2,3.6-0.5,4c-0.3,0.4-1.1,0.7-1.4-0.2c-0.1-0.4,0.2-1.8-0.1-2.4c-0.3-0.6-1.2-2.3-1.3-3
							C10.9,138.3,10.7,136.4,10.7,136.4z"/>
					</g>
					<g>
						<path fill="#DBAA73" d="M56.9,105.7c0,0-0.8,20-0.8,22.6c-0.1,2.7,1.3,7.2,1.3,8.1c0,1-1.8,8.4-2.5,10.3
							c-0.7,1.9-1.1,3-1.5,3.5c-0.3,0.5-1.7,0.3-1.5-1.4c0,0,0,0-0.1,0.1c-0.1,1-1.3,2-1.6,0.5c0,0-0.1-0.4-0.1-0.4
							c-0.2,0.6-1.4,0.9-1.3-0.7c0-1.8,0.2-20,0.2-20L48,106.6L56.9,105.7z"/>
						<path fill="#E9CAAD" d="M55.9,112.7c0,0-0.1,11.2-0.3,15.7c-0.1,2.6,1.2,7.2,1.2,8.2c0,1-1.4,8.4-2.2,10.3
							c-0.7,1.9-0.9,2.8-1.3,3.3c-0.3,0.5-1.6,0.4-1.4-1.4c0,0,0.1-0.8,0.4-1.8c0.2-0.8,1.1-1,1.1-1c-0.1-0.3-0.8,0.1-0.8,0.1
							c0.1-0.5,0.2-0.7,0.2-1c0,0-0.3,0.1-0.4,0.1c-0.2,1.3-0.8,3.6-0.8,3.7c-0.1,1-1.2,2.1-1.5,0.5c0,0,0-1.8,0.6-3.1
							c0.1-0.3,0.5-0.6,0.8-0.7c-0.2-0.2-0.6,0-0.6,0c0.1-0.5,0.2-0.9,0.2-1.2c0,0-0.2-0.3-0.2-0.3c0,0-0.8,4.4-0.8,4.4
							c-0.2,0.6-1.2,1.2-1.2-0.4c0-0.3,0.3-1.2,0.5-2.3c0-0.2,0.5-0.7,0.8-0.7c0,0-0.2-0.3-0.7-0.3c0.2-1.7,0.3-3.9-0.2-6.2
							c-0.1-0.6-0.3-1.3-0.3-1.9c0.2-4.5,1.7-5.1,1.7-5.1c-1.2-5,1.1-13.6,3.7-18.6L55.9,112.7z"/>
						<path fill="#DBAA73" d="M54.6,136.3c0,0,0,1,0,2c0,0.1,0.9-0.9,0.9-0.9c0,0-0.9,1.8-0.9,1.8c0,0.5-0.1,1-0.2,1.2
							c-0.4,0.6-1,1.9-1,2.4c0,0.5,0,1.9-0.2,2.2c-0.2,0.3-1.5,0.5-2-0.5c-0.5-1.1-0.3-3.4-0.6-4c-0.3-0.6-0.8-2.1-0.8-2.1
							s1.4,1.3,1.3,2.1c0,2,0.3,3.6,0.6,4c0.3,0.4,1.1,0.7,1.4-0.2c0.1-0.4-0.2-1.8,0.1-2.4c0.3-0.6,1.2-2.3,1.2-3.1
							C54.4,138.2,54.6,136.3,54.6,136.3z"/>
					</g>
				</g>
				<g>
					<path d="M56.3,124.8c0,0-3.2,2.9-6.9-0.1l0,2.7c0,0,4.1,2.5,6.9,0L56.3,124.8z"/>
					<path fill="#646567" d="M56.3,125.1c0,0-1.7,2.1-5.1,1c-1.2-0.4-1.1,1.2-0.5,1.5c0,0,2.6,1.6,5.6-0.6L56.3,125.1z"/>
					<ellipse fill="#1A171B" cx="56" cy="126.4" rx="0.7" ry="2.1"/>
					<ellipse fill="#C6C7C8" cx="56.1" cy="126.4" rx="0.5" ry="1.9"/>
				</g>
			</g>
			<g>
				<g>
					<path fill="#2E2A25" d="M50.1,211.2c-1-7-1.6-8.9-1.6-8.9l-11.8,9.2c0,0-3,3.3-2,6.3l1,2l5.2,2.2l3.1,4l13.1-6.4
						C57,219.6,51.1,218.2,50.1,211.2z M30.8,208.7l-9.4-1.6c0,0-3.3,2.1-4.8,5.6c-1.5,3.5-4.9,5.2-4.9,5.2l11,7.5l7.1-4.3l2.8-1.5
						c0,0,0-1.1-0.1-1.4s-0.3-1.5,0-2.3C33.3,213.9,30.8,208.7,30.8,208.7z"/>
					<path fill="#FFFFFF" d="M37.8,212.5c-0.9,0-1.6,1.2-1.6,2.6c0,1.4,0.7,2.6,1.6,2.6c0.9,0,1.6-1.2,1.6-2.6
						C39.4,213.7,38.6,212.5,37.8,212.5z M29.6,211.9c-0.8,0-1.5,1.2-1.5,2.6c0,1.4,0.7,2.6,1.5,2.6c0.8,0,1.5-1.2,1.5-2.6
						C31.1,213.1,30.4,211.9,29.6,211.9z"/>
					<path fill="#3E3E40" d="M34.3,212.4c0,0,5.5,1.9,6.5,2.5c1,0.6,3.1,1.7,4.7,0.5c1.7-1.3,4.6-3.6,5.2-3.8
						c0.6-0.3,0.8-1.2,0.6-1.7c-0.2-0.6-0.6-2.1,0.4-3.3c1-1.3,2-2.3,1.3-2.6s-2.4-2.4-2.4-2.4l-0.3-29.7l1.1-1.3l-1.2-3.5
						l-0.5-43.4l-0.4-4.7l-34,1.5l1.1,31.4l0.3,15.8l-1.1,2.2l1.1,1.8l-0.4,27.7l-1.1,1.7c0,0-1,1.2-0.7,2c0.3,0.8,1.7,2.7,1.7,3.1
						c0.1,0.3,0.3,1.3-0.2,2.1s-2.6,2.9-2,3.6c0.6,0.7,6.2,4.9,8,4.7s9.8-4.3,10.3-4.7c0.6-0.4,0.9-1.4,0.4-2.3
						c-0.5-0.9-1.6-2.2-1-3.2c0.6-1,1.7-2.7,1.3-3.2s-1.3-2.1-1.3-2.1l-0.1-22.4l0.6-24.3l0.7-15.2l1,15.2l1.5,24.1l-0.2,22.1
						c0,0-1.4,2-1.5,2.3s0,2,0.3,2.4c0.3,0.4,1.3,2.2,1.3,2.2s-1,1.6-1.2,2.2C34,210.2,33.4,211.6,34.3,212.4z"/>
					<path fill="#58585A" d="M35.5,212.4c0,0,4.4,1.3,5.4,2c1,0.6,3.1,1.7,4.7,0.5c1.7-1.3,3.5-3,4.1-3.3c0.6-0.3,0.8-1.2,0.6-1.7
						c-0.2-0.6-0.6-2.1,0.4-3.3c1-1.3,2-2.3,1.3-2.6s-2.4-1.1-2.4-1.1l-0.8-31l1.1-1.2l-0.6-4.3l0.1-39.5l-2.6,5.6l-7.1,6.3
						l-1.4-12.2l-5.7,0.6l-7.7,0.1l-3.6,9.8l-2-1.8l-1,1.4l-0.1,15.3l1.7,15.3l-1.3,2.4l2,1.5l5.5,2.2l-5.7-1l-3.5,27.1l-1.1,1.7
						c0,0-1,1.2-0.7,2c0.3,0.8,2.8,2.7,2.9,3.1s0.3,1.3-0.2,2.1c-0.6,0.8-3.2,2.4-2.6,3.1c0.6,0.7,5.1,4.3,6.9,4.1s9.2-3.1,9.8-3.6
						c0.6-0.4-1.7-2.7-2.4-3.4c-0.7-0.7-2.7-1.1-2.2-2.1c0.6-1,5.6-2.7,5.2-3.2s-1.3-2.1-1.3-2.1l-1-22.6l0.7-8.4l-1.1-11.8l0.8-3.9
						l1.6-14.5l-0.3-2.6l1.3,0.6l1.6-0.5l0.7,16.8l1,3l1.8,4.6l-1.5,7l0.8,9.5l-1.1,22.2c0,0-0.8,2-0.9,2.3s-0.6,2-0.2,2.4
						c0.3,0.4,3.5,2.2,3.5,2.2s-3.3,2.2-3.4,2.8C35.1,210.7,34.6,211.6,35.5,212.4z"/>
					<path fill="#CCCCCC" d="M34.6,217.8c0,0-0.3,0.7-0.2,1.4c0.1,0.7,0.2,1.2,0.2,1.2s0.4,0.6,1.2,1s3.9,1.3,4.4,1.8
						s1.3,1.2,1.2,2.4c-0.1,1.3,2.4,9.7,13.6,6.7c5.3-1.4,8.3-4.9,8.5-6.5c0.2-1.6-2.1-7.5-8.4-7.2s-10.7,5-10.7,5s-2.7-2.4-4.6-2.9
						S35.6,219.8,34.6,217.8z"/>
					<path fill="#FFFFFF" d="M40.3,222.6c0.5,0.5,1.8,1.2,1.8,2.4c-0.1,1.3,1.9,9.7,13,6.7c5.3-1.4,7.9-4.4,8.2-6
						c0.2-1.6-1.7-6.9-8-6.6c-6.3,0.3-10.2,5.6-10.2,5.6s-3.3-2.9-5.2-3.5C37.9,220.7,39.8,222.1,40.3,222.6z"/>
					<path fill="#CCCCCC" d="M32.4,218.1c0,0,1.2,2.1,0.2,3c-1,0.8-2.9,0.8-6.1,4.5s-6.3,4.7-7.6,4.9c-1.3,0.2-10.7,0.3-14.4-2.9
						c-3.7-3.2-4.4-7.6,1.6-11s13-0.9,17.9,5.8c0,0,0.8,0.2,1.7,0c0.9-0.2,2.4-2.4,3.3-2.7C29.8,219.3,31.7,219,32.4,218.1z"/>
					<path fill="#FFFFFF" d="M30.9,220.5c-1,0.8-1.3,0.2-4.5,3.9s-6.3,4.7-7.6,4.9c-1.3,0.2-10.7-0.2-14.4-3.4
						c-1.7-2.1-2.1-5.6,1.6-8.2c6-3.4,12.7-2,17.6,4.7c0,0,1.1,0.8,2,0.6c0.9-0.2,2.4-2.4,3.3-2.7C29.8,219.8,31.9,219.6,30.9,220.5
						z"/>
				</g>
				<path fill="#3E3E40" d="M18.7,203.3c-1-0.5-2.6-1.5-3.9-0.8l0.6-1.3l1.3-2.3c5.6,6.5,10.8,4.3,13.8,3.1c0,0-3.6,2.1-5.8,2.9
					C24.7,205,22.1,205.1,18.7,203.3z"/>
				<path fill="#3E3E40" d="M17.4,204.4c1.7,1.3,2.2,3.9,0.7,4.8c0,0,1.3-0.8,2.8-1.3c1.5-0.4,7,0.4,7,0.4
					C25,206,17.4,204.4,17.4,204.4z"/>
				<path fill="#3E3E40" d="M51.6,203.5c0,0-2.6,1.4-4.2,1.7c-1.6,0.3-9.3-2.1-10.3-3.3c0,0,7.8,4.3,12.8,0.7L51.6,203.5z"/>
				<path fill="#3E3E40" d="M43.1,212c0,0,0.2-4.6,6.4-5.7C49.5,206.4,45.4,209.1,43.1,212z"/>
				<path fill="#3E3E40" d="M35.9,198.3l-0.1,1.7l-0.6,1.2c0,0,1.5-0.4,2.9,0.1c1.4,0.5,2.8,1,2.8,1S36.1,200,35.9,198.3z"/>
				<polygon fill="#3E3E40" points="48.4,169.5 45.7,171.5 39.4,171.4 45.1,170.4 				"/>
			</g>
			<g>
				<path fill="#CCCCCC" d="M45.3,122.2c-7.4,5.9-18.9,4.4-25.7,0c-6.9-4.4,0-60.3,0-60.3h25.7C45.3,61.9,52.8,116.4,45.3,122.2z"/>
				<path fill="#FFFFFF" d="M35.7,99.5c0.1,1.1-3.2,3.6-7.1,4.2c0,0,7.5,0.2,7.5,0.7c0.8,9.7,2.3,19.7,2.3,19.7
					c-7.9,3.4-14.1-1.9-14.1-1.9l-0.2-9.8c2.7,3.2,7.9,1.5,7.9,1.5c-6.8-1.3-7.4-6.1-7.4-6.1l1.6-39.1c4.7,2.7,9.6-1.6,9.6-1.6
					C34.2,72.8,34.8,87,35.7,99.5z"/>
			</g>
			<g>
				<path fill="#162983" d="M59.3,99.2c-0.5-0.3-2.9-0.8-2.9-0.8s-0.1-2.9-0.1-3.8s-0.1-4-0.3-4.9c-0.3-0.9-1-0.8-1-0.8
					s0.6-2.1,0.9-3.3c0.3-1.3,0.4-2.4,0.2-3.1c-0.2-0.7-0.6-9.9-0.6-10.7s0.2-1.9,0.4-3.9c0.2-2-1.2-3.2-1.7-3.8
					c-0.3-0.4-0.6-0.7-0.8-1.1c-0.1-0.2,0.5-0.5,0.4-0.7c-0.1-0.2-1.1-0.5-1.5-1.1c-0.7-1.1-1.6-2.4-2-3c-0.7-0.9-1.8-1-2.4-1
					s-3.2,1-3.9,1.1s-1.3-0.1-1.3-0.1c-4.9-4.3-11.8-4.5-15.8-4.2c-4,0.3-7.1,4.4-7.1,4.4s-1.2-0.7-2.5-1.1
					c-1.3-0.4-2.1-0.7-2.7-0.8s-1.6,0-2,0.2c-0.3,0.2-2.2,2.8-2.6,3.6c-0.4,0.8-2.2,2.2-2.2,2.2s0,0.4,0.3,0.6
					c0.3,0.2,1.5,0.1,1.5,0.1S9,63.4,8.4,64.1c-0.6,0.6-1.5,2.3-1.7,3.8s0.6,18,0.6,18l-1.5,2l1.7,2.7l0.1,5.9c0,0-2.2,2-2.3,2.6
					c-0.1,0.7,1.7,5.1,1.7,5.1s-0.6,2.8-0.8,3.4c-0.1,0.6,0.8,1.6,1.6,2.2c0.8,0.6,3.8,0.3,4.6-0.1c0.8-0.3,3-0.1,3-0.1
					s-0.3,6.1-1,11.9c-0.7,5.9-0.3,5.3,1.5,9.1c1.9,3.8,7.5,5.6,7.5,5.6c-0.1-1.4-0.4-17.2-0.4-19.5s0.4-13.3,0.6-15.6
					c0.2-2.3-0.2-11.9-0.3-13.3s0.8-14.3,0.8-15.6c0-1.3-0.1-4-0.1-11.7s11.7-3.3,12.3-3.1c0.6,0.3,1.3,1.7,1.5,2.8
					c0.2,1-1.1,6.4-1.4,8.6c-0.3,2.2,0,5.2,0,6.3S37,85,36.9,87.5s1,16.1,1,18.3s1.2,16,1.2,17.3s1.3,14.2,1.3,14.2s3.4-3.4,5.3-5.6
					c1.9-2.2,4.8-8.4,5-8.8c0.2-0.4-0.2-2.4-0.6-3.6c-0.4-1.2-0.6-6.6-0.6-6.6l0.1-1.6c4.9,3.3,8.8-0.7,8.9-1
					c0.1-0.3-0.1-2.9-0.2-3.7c-0.1-0.8,0.6-1.7,0.6-1.7s2.6-3.3,2.9-4C62,100,59.8,99.5,59.3,99.2z M11.2,61.5c0,0,1.6-2.4,2.3-2.9
					c0.7-0.5,2.4-0.9,3.1-0.4c0.7,0.4,1.5,0.5,1.5,0.5S12.5,60.7,11.2,61.5z M46.8,59.2c0,0,0.7-0.8,1.2-0.7c0.5,0.1,2,0.9,2.9,2.1
					c0.7,1,0.4,1.1,0.4,1.1S48.1,59.3,46.8,59.2z"/>
				<rect x="23.4" y="56.2" fill="#162983" width="14.7" height="6"/>
				<path fill="#4F5BC9" d="M21.9,133.7c0,0-3.8-0.7-5.6-4.4c-1.8-3.7-1.6-2.6-0.9-8.3c0.7-5.7,0.4-11.7,0.4-11.7l-0.8-3.1
					c0,0-1.8,2.2-2.1,2.4c-0.8,0.3-3.7,0.6-4.5,0.1c-0.8-0.5-1.7-0.7-1.6-1.3c0.1-0.6,1.9-3.3,1.9-3.3s-3-4.3-2.8-5
					c0.1-0.7,3.4-2.6,3.4-2.6l-0.6-5.8L6.2,88l1.5-2c0,0-0.2-16.2,0-17.6c0.2-1.4,0.6-3.1,1.2-3.7c0.5-0.6,1.9-2,1.9-2
					c5.3-2.9,9.3-3.8,9.3-3.8s3.1-4,7-4.3c3.9-0.3,10.6-0.1,15.4,4.1c0,0,6.4,2,11.2,5.9c0.6,0.5,1.8,1.7,1.6,3.7
					c-0.2,2-2.1,3.6-2.1,4.4c0,0.8,1.5,9.3,1.7,10s0.7,1.8,0.4,3.1c-0.3,1.2-3,6.3-3,6.3s2.8-3,3.1-2.2c0.3,0.9,0.3,3.9,0.3,4.9
					c0,1,0.1,8.2,0.1,8.2l0.5-0.2c0,0,0.2-3.5,0.2-3.5c0.7,0.2,1.7,0.4,2,0.6c0.5,0.3,2.1,0.8,1.8,1.5c-0.3,0.7-2.2,3.3-2.2,3.3
					s-0.8,0.8-0.6,1.6c0.1,0.8,0.3,3.3,0.2,3.6c-0.1,0.3-4,2-8.7-1.3l-0.1,3.8c0,0-0.4,5.3,0.1,6.5c0.4,1.2,0.8,3.1,0.6,3.5
					c-0.2,0.4-2.5,6.4-4.4,8.6c-1.8,2.2-4.6,5.5-4.6,5.5s-1.2-12.7-1.2-13.9c0-1.2-1.2-14.8-1.2-16.9c0.1-2.1-1-15.4-1-17.9
					c0.1-2.5-0.5-11.1-0.5-12.2c0-1-0.3-4,0-6.1c0.3-2.1,1.6-7.4,1.4-8.4c-0.2-1-1.4-3.6-2-3.8C35.6,56.8,23,53.6,23,61.2
					c0,7.6,0.7,10.2,0.7,11.5c0,1.3-1.4,13.9-1.3,15.3c0.1,1.4,0.5,10.8,0.3,13c-0.2,2.3-0.6,13-0.6,15.3
					C22.1,118.6,21.8,132.4,21.9,133.7z"/>
				<path fill="#4F5BC9" d="M8.5,62.5c0,0,1.5,0.6,2.7-1.5c1.2-2.1,2.3-2.8,3-3.1c2-0.9,5.4,1.1,5.4,1.1l0.4-0.5
					c-1.3-0.7-6.3-2.2-7.1-1.5c-1.1,1-2.5,3.5-2.9,4C9.5,61.5,9.2,62.4,8.5,62.5z"/>
				<path fill="#4F5BC9" d="M44.2,60.2l-1.2-1.5c0,0,4.7-1.7,5.6-1.4c0.8,0.3,2.1,1.6,2.3,2s0.3,1,0.3,1s-2-2.7-3.2-2.3
					C46.8,58.4,44.4,59.6,44.2,60.2z"/>
				<polygon fill="#162983" points="9.5,85.8 7.4,87.8 9.9,89.9 12.3,90.1 9.9,88.8 8.6,87.6 				"/>
				<path fill="#162983" d="M48,80.4l-1.7-0.9l1.2-0.3c-2.5-0.2-5.3,0.9-5.3,0.9C45.1,79.4,48,80.4,48,80.4z M50.6,85.6l0.5-1
					l-0.7-5.7v5.9l-1,0.6c-1.4-0.9-8,0.1-8,0.1l-1-1l-0.3-3.2L40,83.7l0.6,2.2l0.9,0.2c4-1.2,8.5,0.1,8.5,0.1l0.3-0.2l0.2,1.6
					l-1.1,6.1l-1.3,0.9l2.2-0.5l0.8-3.5l-0.1-2.8L50.6,85.6z M41.3,94.3c0,0-0.4-1-0.9-1.4c0,0-0.8-1.3-0.8-6.1l-0.3,6.5
					c0,0,0.9,0.4,1.2,0.8c0.3,0.4,0.4,0.8,0.4,0.8s2.3-0.6,3.6,0.1C44.5,94.9,42.8,93.8,41.3,94.3z M44.8,83.5
					c0,0.3,0.3,0.6,0.8,0.6c0.4,0,0.8-0.3,0.8-0.6s-0.3-0.6-0.8-0.6C45.2,82.9,44.8,83.2,44.8,83.5z"/>
				<path fill="#162983" d="M13.5,86.7c0,0-0.8-3.4,0.1-5.9c0,0-1.1,2.9-1,4c0,1.2,0.5,2.8,0.5,2.8s0.4-0.3,1-0.6l0.8,6
					c0,0,1.1,0.4,2.4,3.1c0,0-0.7-2.6-1.7-3.3c0,0-1.3-4.7-0.6-6.2c1-0.4,2.3-0.7,3.6-0.5C18.6,86.3,15.7,85.1,13.5,86.7z
					 M21.7,85.4l-1-3.7l0.5,3.5l-0.6,0.6L21.7,85.4z M16.9,85.1c0.3,0,0.6-0.3,0.6-0.6c0-0.3-0.3-0.6-0.6-0.6
					c-0.3,0-0.6,0.3-0.6,0.6C16.3,84.8,16.6,85.1,16.9,85.1z"/>
				<path fill="#162983" d="M15.4,99.9l-1.8-0.2c0,0-0.7,0-0.6,1c0.1,1.1,0.2,2,0.2,2l-0.7-2c0,0-0.3-0.9-1.1-0.7
					c-0.4,0.1-2.2,0.3-2.2,0.3l0-4.1L7.6,96l0.7,4.6c0,0-1.2,0.5-2.7-1.5l0.8,2.4l5-0.7l1.3,2.9l1.3,0.6l-0.7-1l0.3-1.1l-0.2-1.7
					l1.3,0.1v5.9l0.7,1.8L15.4,99.9z"/>
				<path fill="#162983" d="M14.6,100.1l0.7-0.2l0.9-5.6l-0.9-1C15.3,93.3,15.3,99.3,14.6,100.1z"/>
				<circle fill="#162983" cx="13.1" cy="104.9" r="0.6"/>
				<polygon fill="#162983" points="15.7,81 17.8,81.1 19.8,80.3 18,81.7 				"/>
				<polygon fill="#162983" points="21.3,93.8 18.7,93.1 17.4,94.2 19.5,93.9 				"/>
				<path fill="#162983" d="M61,100.4c0,0-1.5,0.7-3.6-0.3c0,0-0.7,1.8-1.5,2.6c0,0-0.1-1-0.8-1.7c0,0-3.6,2.9-5.7-0.1l0.5-7
					L49,94.2l-0.1,5.6l0.4,8.8l2.8,2.8c0,0-0.2-1.4-0.4-3.1c-0.1-0.5,1.6-1.6,1.6-1.6s-1.9-1.2-2-1.8c-0.1-1.2-0.2-2-0.1-1.9
					c1.2,0.5,2.1,0.6,3.4-0.7c0,0,0.8,0.8,0.8,1.9c0,0,1-0.7,1.5-1.5c0.4-0.8,1-1.5,1-1.5l3.3-0.1V100.4z"/>
				<circle fill="#162983" cx="54.9" cy="104.7" r="0.5"/>
				<g>
					<ellipse cx="55.2" cy="77.2" rx="2.4" ry="5.4"/>
					<ellipse fill="#F29400" cx="55.7" cy="77.2" rx="1.3" ry="3.7"/>
				</g>
				<path fill="#CCCCCC" d="M10.4,74.5c0,2.9-1,7.8-2.3,7.8S6,80.1,6,77.1C6,74.2,6.8,72,8.2,72S10.4,71.6,10.4,74.5z"/>
				<path fill="#162983" d="M8.2,77.2c0,0,1,0.3,2.1,0l0.2-1.8c-1.6,0.4-2.3,0-2.3,0s0.6-2.7,0.9-3.5l-1.2,0c0,0-0.8,2.5-0.9,3.5
					C6.5,75.6,6,75,6,75l-0.2,1.8c0.6,0.2,1.1,0.2,1.1,0.2c-0.5,2,0,4.6,0,4.6s0.7,1,1.2,0.7C8.2,82.5,7.5,78.8,8.2,77.2z"/>
				<line fill="#001689" x1="10.3" y1="77.2" x2="10.5" y2="75.2"/>
				<path d="M8.2,71.8c-1.3,0-2.4,2.4-2.4,5.4c0,3,1.1,5.4,2.4,5.4s2.4-5.2,2.4-8.2C10.6,71.4,9.5,71.8,8.2,71.8z M8.1,82.3
					c-1.3,0-2.1-2.3-2.1-5.2C6,74.2,6.8,72,8.2,72s2.3-0.5,2.3,2.4C10.4,77.4,9.4,82.3,8.1,82.3z"/>
				<polygon fill="#162983" points="58,104.2 55.3,106.8 57.7,109.1 57.1,106.6 				"/>
				<g>
					<circle fill="#006600" cx="43.2" cy="88.2" r="1.4"/>
					<circle fill="#00FF33" cx="43.4" cy="88" r="1.1"/>
				</g>
				<g>
					<circle fill="#666666" cx="47.3" cy="89.1" r="1.3"/>
					<circle fill="#CCCCCC" cx="47.4" cy="89" r="1"/>
				</g>
				<g>
					<circle cx="43.8" cy="92.1" r="1.3"/>
					<circle fill="#333333" cx="44" cy="92.1" r="1"/>
				</g>
				<g>
					<circle fill="#990033" cx="17.1" cy="88.1" r="1.3"/>
					<circle fill="#FF0033" cx="17.2" cy="87.9" r="1"/>
				</g>
				<g>
					<circle fill="#990033" cx="19.3" cy="90.5" r="1.3"/>
					<circle fill="#FF0033" cx="19.4" cy="90.4" r="1"/>
				</g>
				<path d="M39.3,71.4c0,0,0.1,3.9,0.4,4.7c0.3,0.8,0.6,1.3,1.9,1.3s4-0.6,4-0.6s0.9,0,1-1.6s0.1-4.8,0.1-4.8s0-0.8-0.8-1
					s-6.1-0.5-6.1-0.5L39.3,71.4z"/>
				<path d="M21.8,77c0,0-5.2,1.9-5.9,1.5c-0.7-0.4-0.7-2.4-0.8-3.9c-0.1-1.5-0.8-2.6,0.8-3.2c1.6-0.6,4.3-1.5,4.5-1.4
					S22.6,76.6,21.8,77z"/>
				<polygon fill="#4F5BC9" points="22.3,78.7 22.8,72.8 21.4,69.8 19.1,73.5 				"/>
				<path fill="#162983" d="M21.9,56.7c0,0-2.7,1.3-5.4,5.6c0,0,6.1,1.5,5.9,3.9c-0.1,2.4-3.7,7.4-3.7,7.4s2.2,3.3,2.8,4.5
					s1.7,5.2,1.7,5.2l0.3-2.3l-3.9-7.3c0,0,3.3-5.8,3.3-7.2c-0.1-1.3-2.9-4.6-4.7-4.7C18.1,61.7,20.5,58.6,21.9,56.7z"/>
				<polygon fill="#4F5BC9" points="39.2,67.6 41.2,71.7 39,74.7 37.4,72.5 				"/>
				<path fill="#162983" d="M44.3,61.9c0.4-0.7-1-2.4-2.2-3.6l0.6-0.3c1.6,1.6,2.9,4.8,2.9,4.8s-3.5-0.9-6.3,3.2
					c-0.5,0.7,2.5,5.9,2.5,5.9s-4.1,4.5-4.1,7L37,82.1l-0.3-1.5c0,0,1.3-6.8,3.7-8.9c0,0-2.6-4.7-2-5.7c0.7-1,3.1-3.3,3.1-3.3
					S43,61.7,44.3,61.9z"/>
			</g>
			<polygon fill="none" points="-1.7,5.3 72.1,-4.1 72.1,239.3 -5.5,239.3 			"/>
			<g>
				<path fill="#DBAA73" d="M24,62.2c2,6.5,10.2,7.8,13.6,0c0,0-1.6-6.5-1-11.3c0.7-4.8,0.8-5.4,0.8-5.4l-15.9-0.2
					C21.5,45.3,25.4,57.6,24,62.2z"/>
				<path fill="#E9CAAD" d="M25.1,61.7c2,6.5,8.5,8.4,11.9,0.7c0,0-1.6-6.6-0.9-11.4c0.7-4.8,1.4-5.4,1.4-5.4l-8.1-0.2
					C29.3,45.3,26.5,57.1,25.1,61.7z"/>
			</g>
			<g>
				<path fill="#2E2A25" d="M26.6,51c0,0-5.6-0.4-7.7,0.7c0,0,2.6-6.4-5.7-4.9c0,0,3.6-4.2-4.6-5.4c0,0,3.3-3.3,0.3-6.4
					s-3.6-3.9-3.6-3.9s7.5,3.6,1.3-4.4c0,0,5.6,1.9,5.7,0.3c0.1-1.6-3.4-4.3-5.2-3.6c0,0,2.5-0.8,4-0.8c1.5,0.1,4.2-0.8,4-1.3
					s-2.6-2.5-5.6-3.5c0,0,6.6-3.8,9.3-3.6c0,0,2.3-7.4,4.6-9.8c0,0,0.5,5.3,1.2,6.6c0,0,5.9-7.3,10.6-9.1c0,0-4,9.2-0.8,8.6
					c3.3-0.6,7-1.1,9.1-0.8c0,0-6.6,5.2-2.8,5.2s8.9,1.4,8.9,1.4l-5.6,2c0,0,5.6,2.1,7.9,3.6c0,0-3.3,0.1-5.4,1.5
					c0,0,3.9,2.9,6.9,1.5c0,0-4.7,5.7-1.9,5.6c2.9-0.1,4.8-0.6,4.8-0.6s-5.1,4.1-4.9,4.9s3.3-0.2,3.3-0.2s-3.6,2.9-4.2,4
					s-2.1,3-0.4,5.4c0,0-5.9-0.4-4.3,4.9c0,0-5.4-1.7-8.9,1.3L26.6,51z"/>
				<path fill="#DBAA73" d="M14.4,30.2l2.2-1.5c0,0,0.1-3.5,1.3-5l0.4,1c0,0,1.4-3.8,2.6-4.4c0,0,4.3,0.4,6.1,1s2.8,0.7,4.7,0.1
					c1.9-0.6,5.9-1.7,6.6-1.5c0.8,0.3,1.3,0.6,1.3,1.8c-0.1,1.3-0.2,3.6-0.2,3.6s3.6,0.7,3.5,3.1l1.8,0.8l-0.6,4l2.1,1.2
					c0,0,2.6-0.1,3.3,1s0.7,4.7-1.7,6.1c-2.4,1.5-3.2,0-3.2,0s-3.1,7-8,10.6c-2.9,2.1-7.9,3.9-12.1,0.1s-4.3-3.8-6.4-6.8
					c-2-2.7-2-3.6-2-3.6s-3.9,0.4-4.5-2.9C11,36.8,11.8,34,14.5,35L14.4,30.2z"/>
				<path fill="#E9CAAD" d="M15.8,30.4l2.7-0.9c0,0-1.5-2.9-0.4-4.4l1.5,1c0,0,0.3-3.2,1.5-3.7c0,0,4.2-0.7,6-0.1
					c1.8,0.6,2.7,0.1,4.6-0.4c1.8-0.5,5.7-1.7,6.5-1.4c0.8,0.3,1.3,0.5,1.2,1.8c-0.1,1.2-0.2,3.6-0.2,3.6s3.5,0.7,3.4,3.1l1.8,0.8
					l-0.5,4l2,2.3c0,0,2.5-1.2,3.2-0.1c0.7,1.1,0.7,4.6-1.7,6c-2.4,1.4-2.6-1.1-2.6-1.1s-3.6,7.9-8.4,11.5
					c-2.8,2.1-7.2,3.8-11.3,0.1c-4.2-3.8-4.2-3.8-6.3-6.7c-1.9-2.7-2-4-2-4s-3.7,1.4-4.9-1.7c-0.9-2.2,0-5.6,3-4.2L15.8,30.4z"/>
				<path fill="#DBAA73" d="M27.8,31.8c0,0,1.3,1,1,2.9c-0.3,1.9-1.5,5.2-1.5,5.6c0,0.4-0.2,1.5,0.8,1.9s2.2,0,2.2,0s-1.7-0.2-2-0.5
					c-0.4-0.4-0.6-0.7-0.4-1.8c0.2-1.3,0.8-3.2,1.1-4.3C29.2,34.9,29.4,33.2,27.8,31.8z"/>
				<path fill="#DBAA73" d="M30.9,48.9c0,0-0.9-1.6-3.8-1.6l0.1,0.7C27.1,48,28.6,47.7,30.9,48.9z"/>
				<path fill="#DBAA73" d="M29,49.1c0,0-1.1,0.4-1.2,0.1C27.7,48.8,28.2,48.7,29,49.1z"/>
				<path fill="#DBAA73" d="M15.1,37.9c0,0-0.3-1.3-0.8-1.6c-0.6-0.3-2.1-0.3-1.5,2c0.6,2.3,1.8,2.2,2.1,1.9
					c0.3-0.3,0.4-0.5,0.4-0.5s-1.8,1.4-2.2-1.4c-0.3-2.2,0.8-1.5,0.8-1.5s-0.4,1-0.1,1.5c0.3,0.5,0.5,0.7,0.5,0.7
					S13.3,36.4,15.1,37.9z"/>
				<path fill="#DBAA73" d="M46,37.9c0,0,0.3-1.3,0.9-1.6c0.6-0.3,2.4-0.3,1.7,2c-0.7,2.3-2,2.2-2.3,1.9c-0.3-0.3-0.5-0.5-0.5-0.5
					s2,1.4,2.5-1.4c0.4-2.2-0.9-1.5-0.9-1.5s0.4,1,0.1,1.5C47.2,38.8,47,39,47,39S48,36.4,46,37.9z"/>
				<path fill="#2E2A25" d="M17,29.6c0,0,5-2.5,6-2.4c1.1,0,3.6,1.4,4.5,1.4c0,0-3,0.2-3.9,0.1C22.7,28.6,17,29.6,17,29.6z"/>
				<path fill="#2E2A25" d="M30.5,27.6c0,0,0.7,2.5,3.7,2.3s5.8-0.3,6.3-0.2c0,0-2-0.7-3.3-0.8C36,28.7,31,27.8,30.5,27.6z"/>
				<path fill="#E2001A" d="M46.2,16.1c-1.5-0.2-4-0.5-5.4-0.3c-2,0.3-2.4,0.7-2.4,0.7S43.3,15.8,46.2,16.1z M46.2,16.1
					c0.7,0.1,1.2,0.2,1.2,0.2C47.1,16.1,46.7,16.1,46.2,16.1z M43.4,19.2c-1.5,0.2-2.1,0.9-2.1,0.9s3.6-0.7,8.7,1.3
					C50,21.4,44.9,19,43.4,19.2z M51.4,25.9c-1.6,0.6-4.2-1.4-4.2-1.4C49.7,27.9,51.4,25.9,51.4,25.9z M51.2,31.2
					c-1.4,0.1-1.3-2.4-1.3-2.4c-1.1,5.3,4.2,1.8,4.2,1.8S52.6,31.1,51.2,31.2z M34.6,11.6c-0.8,0.5-0.9,1.5-0.9,1.5s1.9-1.7,7.2-2.8
					C40.8,10.2,35.3,11.1,34.6,11.6z M33.4,3.8c0,0-5.6,5.1-7.5,7.5c-0.7,0.9-0.8,2.5-0.8,2.5c-0.7-0.1-2-4.4-2-4.4s0.6,5.6,2.8,7.1
					C26,16.5,24.9,12.7,33.4,3.8z M11.6,17.6c3.2-1.4,4.5-0.8,4.5-0.8c0.3-0.7,2-1.4,2-1.4C16.3,14.8,11.6,17.6,11.6,17.6z
					 M29.5,21.4c0,0,3.1-0.2,3.9-1.4c0.9-1.4,1.6-3.6,1.6-3.6S33.3,19.5,29.5,21.4z M10.5,23.2c3.9,1,4.8-1.3,4.8-1.3
					s-0.3,0.3-1.7,0.8S10.5,23.2,10.5,23.2z M12.5,27.8c-0.5,1-4.1,0-4.1,0c5.5,3,4.6-1,4.6-1S12.9,26.8,12.5,27.8z"/>
				<g>
					<path fill="#1A171B" d="M45.5,34.2l-4.6-0.3l0.1-0.9c0-0.2-0.4-0.4-0.7-0.4h-8.6c-0.2,0-0.4,0.2-0.4,0.4l0.1,1.4
						c-0.5-0.3-2.2-1.1-3.6,0.1l0.1-1.5c0-0.2-0.2-0.4-0.4-0.4h-8.6c-0.2,0-0.7,0.2-0.7,0.4l0,1l-3.7,0.6l0,0.5l3.7,0l0.1,2.2
						c0,0.2,0.2,0.4,0.4,0.4h8.4c0.2,0,0.4-0.2,0.4-0.4l0.2-2.2c1.5-1.5,3.2-0.4,3.7-0.1l0.2,2.3c0,0.2,0.2,0.4,0.4,0.4h8.4
						c0.2,0,0.4-0.2,0.4-0.4l0.1-2.2l5.3-0.3L45.5,34.2z"/>
					<path fill="#FFFFFF" d="M26.7,32.8l-7.6,0.1c-1,0.8-0.3,4-0.3,4c0,0.2,0.2,0.4,0.4,0.4l7.7,0c0.2,0,0.4-0.2,0.4-0.4l0.2-3.7
						C27.5,32.9,26.9,32.8,26.7,32.8z M40.1,32.9l-7.6-0.1c-0.2,0-0.8,0.2-0.8,0.4l0.2,3.7c0,0.2,0.2,0.4,0.4,0.4l7.7,0
						c0.2,0,0.4-0.2,0.4-0.4C40.3,36.8,41.1,33.7,40.1,32.9z"/>
				</g>
			</g>
		</g>
	</g>
</g>
</svg>
