<?xml version="1.0" encoding="UTF-8"?>
<svg width="120" height="120" enable-background="new 0 0 60 60" version="1.1" viewBox="0 0 120 120" xml:space="preserve" xmlns="http://www.w3.org/2000/svg" xmlns:cc="http://creativecommons.org/ns#" xmlns:dc="http://purl.org/dc/elements/1.1/" xmlns:rdf="http://www.w3.org/1999/02/22-rdf-syntax-ns#" xmlns:xlink="http://www.w3.org/1999/xlink"><metadata><rdf:RDF><cc:Work rdf:about=""><dc:format>image/svg+xml</dc:format><dc:type rdf:resource="http://purl.org/dc/dcmitype/StillImage"/><dc:title/></cc:Work></rdf:RDF></metadata>
<linearGradient id="SVGID_1_" x1="8.7868" x2="51.213" y1="8.7868" y2="51.213" gradientTransform="scale(2)" gradientUnits="userSpaceOnUse">
	<stop stop-color="#FFEB99" offset="0"/>
	<stop stop-color="#806600" offset="1"/>
</linearGradient>
<circle cx="60" cy="60" r="60" fill="url(#SVGID_1_)" stroke-width="2"/>
<g transform="scale(2)">
	<circle cx="30" cy="30" r="29.1" fill="#fc0"/>
	
		<defs>
			<circle id="SVGID_2_" cx="30" cy="30" r="29.1"/>
		</defs>
		<clipPath id="SVGID_3_">
			<use width="100%" height="100%" overflow="visible" xlink:href="#SVGID_2_"/>
		</clipPath>
		<g clip-path="url(#SVGID_3_)">
			
				
					
						<path d="m7.7 105.8s1.2 19.9 1.3 22.6c0.1 2.6-1.1 7.2-1.1 8.2s2 8.4 2.7 10.2 1.2 3 1.5 3.5 1.7 0.3 1.5-1.5l0.1 0.1c0.1 1 1.3 2 1.6 0.4l0.1-0.4c0.2 0.6 1.4 0.9 1.3-0.7-0.1-1.8-0.6-20-0.6-20l0.6-21.8z" fill="#dbaa73"/>
						<path d="m14 111.1c-4.3 1.7-4.6 14.6-4.5 17.3 0.1 2.6-1 7.2-1 8.2s1.6 8.4 2.4 10.2 1 2.8 1.3 3.3 1.6 0.3 1.3-1.4c0 0-0.1-0.8-0.5-1.8-0.3-0.8-1.1-1-1.1-1 0.1-0.3 0.8 0 0.8 0-0.1-0.5-0.2-0.7-0.2-0.9l0.4 0.1c0.2 1.3 0.9 3.6 0.9 3.6 0.1 1 1.2 2 1.5 0.5 0 0-0.1-1.8-0.7-3.1-0.1-0.3-0.5-0.6-0.8-0.7 0.2-0.2 0.6 0 0.6 0-0.1-0.5-0.2-0.9-0.2-1.2l0.2-0.3 0.9 4.4c0.2 0.6 1.3 1.2 1.2-0.4 0-0.3-0.3-1.2-0.5-2.3 0-0.2-0.5-0.6-0.9-0.7 0 0 0.2-0.3 0.7-0.3-0.3-1.7-0.4-3.9 0.1-6.2 0.1-0.6 0.3-1.3 0.2-1.9-0.3-4.5-1.8-5-1.8-5-1.9-2.5-0.3-20.4-0.3-20.4z" fill="#e9caad"/>
						<path d="m10.7 136.4s0 1 0.1 2c0 0.1-0.9-0.9-0.9-0.8 0 0 1 1.7 1 1.8 0.1 0.5 0.1 1 0.3 1.2 0.4 0.6 1 1.9 1 2.4s0 1.9 0.3 2.2c0.2 0.3 1.5 0.4 2-0.5 0.5-1.1 0.2-3.4 0.5-4s0.8-2.2 0.8-2.2-1.3 1.3-1.3 2.1c0.1 2-0.2 3.6-0.5 4s-1.1 0.7-1.4-0.2c-0.1-0.4 0.2-1.8-0.1-2.4s-1.2-2.3-1.3-3c-0.3-0.7-0.5-2.6-0.5-2.6z" fill="#dbaa73"/>
					
					
						<path d="m56.9 105.7s-0.8 20-0.8 22.6c-0.1 2.7 1.3 7.2 1.3 8.1 0 1-1.8 8.4-2.5 10.3s-1.1 3-1.5 3.5c-0.3 0.5-1.7 0.3-1.5-1.4l-0.1 0.1c-0.1 1-1.3 2-1.6 0.5l-0.1-0.4c-0.2 0.6-1.4 0.9-1.3-0.7 0-1.8 0.2-20 0.2-20l-1-21.7z" fill="#dbaa73"/>
						<path d="m55.9 112.7s-0.1 11.2-0.3 15.7c-0.1 2.6 1.2 7.2 1.2 8.2s-1.4 8.4-2.2 10.3c-0.7 1.9-0.9 2.8-1.3 3.3-0.3 0.5-1.6 0.4-1.4-1.4 0 0 0.1-0.8 0.4-1.8 0.2-0.8 1.1-1 1.1-1-0.1-0.3-0.8 0.1-0.8 0.1 0.1-0.5 0.2-0.7 0.2-1 0 0-0.3 0.1-0.4 0.1-0.2 1.3-0.8 3.6-0.8 3.7-0.1 1-1.2 2.1-1.5 0.5 0 0 0-1.8 0.6-3.1 0.1-0.3 0.5-0.6 0.8-0.7-0.2-0.2-0.6 0-0.6 0 0.1-0.5 0.2-0.9 0.2-1.2l-0.2-0.3-0.8 4.4c-0.2 0.6-1.2 1.2-1.2-0.4 0-0.3 0.3-1.2 0.5-2.3 0-0.2 0.5-0.7 0.8-0.7 0 0-0.2-0.3-0.7-0.3 0.2-1.7 0.3-3.9-0.2-6.2-0.1-0.6-0.3-1.3-0.3-1.9 0.2-4.5 1.7-5.1 1.7-5.1-1.2-5 1.1-13.6 3.7-18.6z" fill="#e9caad"/>
						<path d="m54.6 136.3v2c0 0.1 0.9-0.9 0.9-0.9l-0.9 1.8c0 0.5-0.1 1-0.2 1.2-0.4 0.6-1 1.9-1 2.4s0 1.9-0.2 2.2-1.5 0.5-2-0.5c-0.5-1.1-0.3-3.4-0.6-4s-0.8-2.1-0.8-2.1 1.4 1.3 1.3 2.1c0 2 0.3 3.6 0.6 4s1.1 0.7 1.4-0.2c0.1-0.4-0.2-1.8 0.1-2.4s1.2-2.3 1.2-3.1c0-0.6 0.2-2.5 0.2-2.5z" fill="#dbaa73"/>
					
				
				
					<path d="m56.3 124.8s-3.2 2.9-6.9-0.1v2.7s4.1 2.5 6.9 0z"/>
					<path d="m56.3 125.1s-1.7 2.1-5.1 1c-1.2-0.4-1.1 1.2-0.5 1.5 0 0 2.6 1.6 5.6-0.6z" fill="#646567"/>
					<ellipse cx="56" cy="126.4" rx=".7" ry="2.1" fill="#1a171b"/>
					<ellipse cx="56.1" cy="126.4" rx=".5" ry="1.9" fill="#c6c7c8"/>
				
			
			
				
					<path d="m50.1 211.2c-1-7-1.6-8.9-1.6-8.9l-11.8 9.2s-3 3.3-2 6.3l1 2 5.2 2.2 3.1 4 13.1-6.4c-0.1 0-6-1.4-7-8.4zm-19.3-2.5-9.4-1.6s-3.3 2.1-4.8 5.6-4.9 5.2-4.9 5.2l11 7.5 7.1-4.3 2.8-1.5s0-1.1-0.1-1.4-0.3-1.5 0-2.3c0.8-2-1.7-7.2-1.7-7.2z" fill="#2e2a25"/>
					<path d="m37.8 212.5c-0.9 0-1.6 1.2-1.6 2.6s0.7 2.6 1.6 2.6 1.6-1.2 1.6-2.6-0.8-2.6-1.6-2.6zm-8.2-0.6c-0.8 0-1.5 1.2-1.5 2.6s0.7 2.6 1.5 2.6 1.5-1.2 1.5-2.6-0.7-2.6-1.5-2.6z" fill="#fff"/>
					<path d="m34.3 212.4s5.5 1.9 6.5 2.5 3.1 1.7 4.7 0.5c1.7-1.3 4.6-3.6 5.2-3.8 0.6-0.3 0.8-1.2 0.6-1.7-0.2-0.6-0.6-2.1 0.4-3.3 1-1.3 2-2.3 1.3-2.6s-2.4-2.4-2.4-2.4l-0.3-29.7 1.1-1.3-1.2-3.5-0.5-43.4-0.4-4.7-34 1.5 1.1 31.4 0.3 15.8-1.1 2.2 1.1 1.8-0.4 27.7-1.1 1.7s-1 1.2-0.7 2 1.7 2.7 1.7 3.1c0.1 0.3 0.3 1.3-0.2 2.1s-2.6 2.9-2 3.6 6.2 4.9 8 4.7 9.8-4.3 10.3-4.7c0.6-0.4 0.9-1.4 0.4-2.3s-1.6-2.2-1-3.2 1.7-2.7 1.3-3.2-1.3-2.1-1.3-2.1l-0.1-22.4 0.6-24.3 0.7-15.2 1 15.2 1.5 24.1-0.2 22.1s-1.4 2-1.5 2.3 0 2 0.3 2.4 1.3 2.2 1.3 2.2-1 1.6-1.2 2.2c-0.1 0.5-0.7 1.9 0.2 2.7z" fill="#3e3e40"/>
					<path d="m35.5 212.4s4.4 1.3 5.4 2c1 0.6 3.1 1.7 4.7 0.5 1.7-1.3 3.5-3 4.1-3.3s0.8-1.2 0.6-1.7c-0.2-0.6-0.6-2.1 0.4-3.3 1-1.3 2-2.3 1.3-2.6s-2.4-1.1-2.4-1.1l-0.8-31 1.1-1.2-0.6-4.3 0.1-39.5-2.6 5.6-7.1 6.3-1.4-12.2-5.7 0.6-7.7 0.1-3.6 9.8-2-1.8-1 1.4-0.1 15.3 1.7 15.3-1.3 2.4 2 1.5 5.5 2.2-5.7-1-3.5 27.1-1.1 1.7s-1 1.2-0.7 2 2.8 2.7 2.9 3.1 0.3 1.3-0.2 2.1c-0.6 0.8-3.2 2.4-2.6 3.1s5.1 4.3 6.9 4.1 9.2-3.1 9.8-3.6c0.6-0.4-1.7-2.7-2.4-3.4s-2.7-1.1-2.2-2.1c0.6-1 5.6-2.7 5.2-3.2s-1.3-2.1-1.3-2.1l-1-22.6 0.7-8.4-1.1-11.8 0.8-3.9 1.6-14.5-0.3-2.6 1.3 0.6 1.6-0.5 0.7 16.8 1 3 1.8 4.6-1.5 7 0.8 9.5-1.1 22.2s-0.8 2-0.9 2.3-0.6 2-0.2 2.4c0.3 0.4 3.5 2.2 3.5 2.2s-3.3 2.2-3.4 2.8c-0.4 0.4-0.9 1.3 0 2.1z" fill="#58585a"/>
					<path d="m34.6 217.8s-0.3 0.7-0.2 1.4 0.2 1.2 0.2 1.2 0.4 0.6 1.2 1 3.9 1.3 4.4 1.8 1.3 1.2 1.2 2.4c-0.1 1.3 2.4 9.7 13.6 6.7 5.3-1.4 8.3-4.9 8.5-6.5s-2.1-7.5-8.4-7.2-10.7 5-10.7 5-2.7-2.4-4.6-2.9-4.2-0.9-5.2-2.9z" fill="#ccc"/>
					<path d="m40.3 222.6c0.5 0.5 1.8 1.2 1.8 2.4-0.1 1.3 1.9 9.7 13 6.7 5.3-1.4 7.9-4.4 8.2-6 0.2-1.6-1.7-6.9-8-6.6s-10.2 5.6-10.2 5.6-3.3-2.9-5.2-3.5c-2-0.5-0.1 0.9 0.4 1.4z" fill="#fff"/>
					<path d="m32.4 218.1s1.2 2.1 0.2 3c-1 0.8-2.9 0.8-6.1 4.5s-6.3 4.7-7.6 4.9-10.7 0.3-14.4-2.9-4.4-7.6 1.6-11 13-0.9 17.9 5.8c0 0 0.8 0.2 1.7 0s2.4-2.4 3.3-2.7c0.8-0.4 2.7-0.7 3.4-1.6z" fill="#ccc"/>
					<path d="m30.9 220.5c-1 0.8-1.3 0.2-4.5 3.9s-6.3 4.7-7.6 4.9-10.7-0.2-14.4-3.4c-1.7-2.1-2.1-5.6 1.6-8.2 6-3.4 12.7-2 17.6 4.7 0 0 1.1 0.8 2 0.6s2.4-2.4 3.3-2.7c0.9-0.5 3-0.7 2 0.2z" fill="#fff"/>
				<g fill="#3e3e40">
				<path d="m18.7 203.3c-1-0.5-2.6-1.5-3.9-0.8l0.6-1.3 1.3-2.3c5.6 6.5 10.8 4.3 13.8 3.1 0 0-3.6 2.1-5.8 2.9 0 0.1-2.6 0.2-6-1.6z"/>
				<path d="m17.4 204.4c1.7 1.3 2.2 3.9 0.7 4.8 0 0 1.3-0.8 2.8-1.3 1.5-0.4 7 0.4 7 0.4-2.9-2.3-10.5-3.9-10.5-3.9z"/>
				<path d="m51.6 203.5s-2.6 1.4-4.2 1.7-9.3-2.1-10.3-3.3c0 0 7.8 4.3 12.8 0.7z"/>
				<path d="m43.1 212s0.2-4.6 6.4-5.7c0 0.1-4.1 2.8-6.4 5.7z"/>
				<path d="m35.9 198.3-0.1 1.7-0.6 1.2s1.5-0.4 2.9 0.1 2.8 1 2.8 1-4.8-2.3-5-4z"/>
				<polygon points="45.7 171.5 39.4 171.4 45.1 170.4 48.4 169.5"/>
			</g>
			
				<path d="m45.3 122.2c-7.4 5.9-18.9 4.4-25.7 0-6.9-4.4 0-60.3 0-60.3h25.7s7.5 54.5 0 60.3z" fill="#ccc"/>
				<path d="m35.7 99.5c0.1 1.1-3.2 3.6-7.1 4.2 0 0 7.5 0.2 7.5 0.7 0.8 9.7 2.3 19.7 2.3 19.7-7.9 3.4-14.1-1.9-14.1-1.9l-0.2-9.8c2.7 3.2 7.9 1.5 7.9 1.5-6.8-1.3-7.4-6.1-7.4-6.1l1.6-39.1c4.7 2.7 9.6-1.6 9.6-1.6-1.6 5.7-1 19.9-0.1 32.4z" fill="#fff"/>
			
			
				<path d="m59.3 99.2c-0.5-0.3-2.9-0.8-2.9-0.8s-0.1-2.9-0.1-3.8-0.1-4-0.3-4.9c-0.3-0.9-1-0.8-1-0.8s0.6-2.1 0.9-3.3c0.3-1.3 0.4-2.4 0.2-3.1s-0.6-9.9-0.6-10.7 0.2-1.9 0.4-3.9-1.2-3.2-1.7-3.8c-0.3-0.4-0.6-0.7-0.8-1.1-0.1-0.2 0.5-0.5 0.4-0.7s-1.1-0.5-1.5-1.1c-0.7-1.1-1.6-2.4-2-3-0.7-0.9-1.8-1-2.4-1s-3.2 1-3.9 1.1-1.3-0.1-1.3-0.1c-4.9-4.3-11.8-4.5-15.8-4.2s-7.1 4.4-7.1 4.4-1.2-0.7-2.5-1.1-2.1-0.7-2.7-0.8-1.6 0-2 0.2c-0.3 0.2-2.2 2.8-2.6 3.6s-2.2 2.2-2.2 2.2 0 0.4 0.3 0.6 1.5 0.1 1.5 0.1-0.6 0.2-1.2 0.9c-0.6 0.6-1.5 2.3-1.7 3.8s0.6 18 0.6 18l-1.5 2 1.7 2.7 0.1 5.9s-2.2 2-2.3 2.6c-0.1 0.7 1.7 5.1 1.7 5.1s-0.6 2.8-0.8 3.4c-0.1 0.6 0.8 1.6 1.6 2.2s3.8 0.3 4.6-0.1c0.8-0.3 3-0.1 3-0.1s-0.3 6.1-1 11.9c-0.7 5.9-0.3 5.3 1.5 9.1 1.9 3.8 7.5 5.6 7.5 5.6-0.1-1.4-0.4-17.2-0.4-19.5s0.4-13.3 0.6-15.6-0.2-11.9-0.3-13.3 0.8-14.3 0.8-15.6-0.1-4-0.1-11.7 11.7-3.3 12.3-3.1c0.6 0.3 1.3 1.7 1.5 2.8 0.2 1-1.1 6.4-1.4 8.6s0 5.2 0 6.3 0.6 9.9 0.5 12.4 1 16.1 1 18.3 1.2 16 1.2 17.3 1.3 14.2 1.3 14.2 3.4-3.4 5.3-5.6 4.8-8.4 5-8.8-0.2-2.4-0.6-3.6-0.6-6.6-0.6-6.6l0.1-1.6c4.9 3.3 8.8-0.7 8.9-1s-0.1-2.9-0.2-3.7 0.6-1.7 0.6-1.7 2.6-3.3 2.9-4c0.2-0.7-2-1.2-2.5-1.5zm-48.1-37.7s1.6-2.4 2.3-2.9 2.4-0.9 3.1-0.4c0.7 0.4 1.5 0.5 1.5 0.5s-5.6 2-6.9 2.8zm35.6-2.3s0.7-0.8 1.2-0.7 2 0.9 2.9 2.1c0.7 1 0.4 1.1 0.4 1.1s-3.2-2.4-4.5-2.5z" fill="#162983"/>
				<rect x="23.4" y="56.2" width="14.7" height="6" fill="#162983"/><g fill="#4f5bc9">
				<path d="m21.9 133.7s-3.8-0.7-5.6-4.4-1.6-2.6-0.9-8.3 0.4-11.7 0.4-11.7l-0.8-3.1s-1.8 2.2-2.1 2.4c-0.8 0.3-3.7 0.6-4.5 0.1s-1.7-0.7-1.6-1.3 1.9-3.3 1.9-3.3-3-4.3-2.8-5c0.1-0.7 3.4-2.6 3.4-2.6l-0.6-5.8-2.5-2.7 1.5-2s-0.2-16.2 0-17.6 0.6-3.1 1.2-3.7c0.5-0.6 1.9-2 1.9-2 5.3-2.9 9.3-3.8 9.3-3.8s3.1-4 7-4.3 10.6-0.1 15.4 4.1c0 0 6.4 2 11.2 5.9 0.6 0.5 1.8 1.7 1.6 3.7s-2.1 3.6-2.1 4.4 1.5 9.3 1.7 10 0.7 1.8 0.4 3.1c-0.3 1.2-3 6.3-3 6.3s2.8-3 3.1-2.2c0.3 0.9 0.3 3.9 0.3 4.9s0.1 8.2 0.1 8.2l0.5-0.2 0.2-3.5c0.7 0.2 1.7 0.4 2 0.6 0.5 0.3 2.1 0.8 1.8 1.5s-2.2 3.3-2.2 3.3-0.8 0.8-0.6 1.6c0.1 0.8 0.3 3.3 0.2 3.6s-4 2-8.7-1.3l-0.1 3.8s-0.4 5.3 0.1 6.5c0.4 1.2 0.8 3.1 0.6 3.5s-2.5 6.4-4.4 8.6c-1.8 2.2-4.6 5.5-4.6 5.5s-1.2-12.7-1.2-13.9-1.2-14.8-1.2-16.9c0.1-2.1-1-15.4-1-17.9 0.1-2.5-0.5-11.1-0.5-12.2 0-1-0.3-4 0-6.1s1.6-7.4 1.4-8.4-1.4-3.6-2-3.8c-0.5-0.5-13.1-3.7-13.1 3.9s0.7 10.2 0.7 11.5-1.4 13.9-1.3 15.3 0.5 10.8 0.3 13c-0.2 2.3-0.6 13-0.6 15.3s-0.3 16.1-0.2 17.4z"/>
				<path d="m8.5 62.5s1.5 0.6 2.7-1.5 2.3-2.8 3-3.1c2-0.9 5.4 1.1 5.4 1.1l0.4-0.5c-1.3-0.7-6.3-2.2-7.1-1.5-1.1 1-2.5 3.5-2.9 4-0.5 0.5-0.8 1.4-1.5 1.5z"/>
				<path d="m44.2 60.2-1.2-1.5s4.7-1.7 5.6-1.4c0.8 0.3 2.1 1.6 2.3 2s0.3 1 0.3 1-2-2.7-3.2-2.3-3.6 1.6-3.8 2.2z"/></g><g fill="#162983">
				<polygon points="8.6 87.6 9.5 85.8 7.4 87.8 9.9 89.9 12.3 90.1 9.9 88.8"/>
				<path d="m48 80.4-1.7-0.9 1.2-0.3c-2.5-0.2-5.3 0.9-5.3 0.9 2.9-0.7 5.8 0.3 5.8 0.3zm2.6 5.2 0.5-1-0.7-5.7v5.9l-1 0.6c-1.4-0.9-8 0.1-8 0.1l-1-1-0.3-3.2-0.1 2.4 0.6 2.2 0.9 0.2c4-1.2 8.5 0.1 8.5 0.1l0.3-0.2 0.2 1.6-1.1 6.1-1.3 0.9 2.2-0.5 0.8-3.5-0.1-2.8zm-9.3 8.7s-0.4-1-0.9-1.4c0 0-0.8-1.3-0.8-6.1l-0.3 6.5s0.9 0.4 1.2 0.8 0.4 0.8 0.4 0.8 2.3-0.6 3.6 0.1c0-0.1-1.7-1.2-3.2-0.7zm3.5-10.8c0 0.3 0.3 0.6 0.8 0.6 0.4 0 0.8-0.3 0.8-0.6s-0.3-0.6-0.8-0.6c-0.4 0-0.8 0.3-0.8 0.6z"/>
				<path d="m13.5 86.7s-0.8-3.4 0.1-5.9c0 0-1.1 2.9-1 4 0 1.2 0.5 2.8 0.5 2.8s0.4-0.3 1-0.6l0.8 6s1.1 0.4 2.4 3.1c0 0-0.7-2.6-1.7-3.3 0 0-1.3-4.7-0.6-6.2 1-0.4 2.3-0.7 3.6-0.5 0 0.2-2.9-1-5.1 0.6zm8.2-1.3-1-3.7 0.5 3.5-0.6 0.6zm-4.8-0.3c0.3 0 0.6-0.3 0.6-0.6s-0.3-0.6-0.6-0.6-0.6 0.3-0.6 0.6 0.3 0.6 0.6 0.6z"/>
				<path d="m15.4 99.9-1.8-0.2s-0.7 0-0.6 1c0.1 1.1 0.2 2 0.2 2l-0.7-2s-0.3-0.9-1.1-0.7c-0.4 0.1-2.2 0.3-2.2 0.3v-4.1l-1.6-0.2 0.7 4.6s-1.2 0.5-2.7-1.5l0.8 2.4 5-0.7 1.3 2.9 1.3 0.6-0.7-1 0.3-1.1-0.2-1.7 1.3 0.1v5.9l0.7 1.8z"/>
				<path d="m14.6 100.1 0.7-0.2 0.9-5.6-0.9-1s0 6-0.7 6.8z"/>
				<circle cx="13.1" cy="104.9" r=".6"/>
				<polygon points="17.8 81.1 19.8 80.3 18 81.7 15.7 81"/>
				<polygon points="18.7 93.1 17.4 94.2 19.5 93.9 21.3 93.8"/>
				<path d="m61 100.4s-1.5 0.7-3.6-0.3c0 0-0.7 1.8-1.5 2.6 0 0-0.1-1-0.8-1.7 0 0-3.6 2.9-5.7-0.1l0.5-7-0.9 0.3-0.1 5.6 0.4 8.8 2.8 2.8s-0.2-1.4-0.4-3.1c-0.1-0.5 1.6-1.6 1.6-1.6s-1.9-1.2-2-1.8c-0.1-1.2-0.2-2-0.1-1.9 1.2 0.5 2.1 0.6 3.4-0.7 0 0 0.8 0.8 0.8 1.9 0 0 1-0.7 1.5-1.5 0.4-0.8 1-1.5 1-1.5l3.3-0.1v-0.7z"/>
				<circle cx="54.9" cy="104.7" r=".5"/>
				</g>
					<ellipse cx="55.2" cy="77.2" rx="2.4" ry="5.4"/>
					<ellipse cx="55.7" cy="77.2" rx="1.3" ry="3.7" fill="#f29400"/>
				
				<path d="m10.4 74.5c0 2.9-1 7.8-2.3 7.8s-2.1-2.2-2.1-5.2c0-2.9 0.8-5.1 2.2-5.1s2.2-0.4 2.2 2.5z" fill="#ccc"/>
				<path d="m8.2 77.2s1 0.3 2.1 0l0.2-1.8c-1.6 0.4-2.3 0-2.3 0s0.6-2.7 0.9-3.5h-1.2s-0.8 2.5-0.9 3.5c-0.5 0.2-1-0.4-1-0.4l-0.2 1.8c0.6 0.2 1.1 0.2 1.1 0.2-0.5 2 0 4.6 0 4.6s0.7 1 1.2 0.7c0.1 0.2-0.6-3.5 0.1-5.1z" fill="#162983"/>
				<line x1="10.3" x2="10.5" y1="77.2" y2="75.2" fill="#001689"/>
				<path d="m8.2 71.8c-1.3 0-2.4 2.4-2.4 5.4s1.1 5.4 2.4 5.4 2.4-5.2 2.4-8.2-1.1-2.6-2.4-2.6zm-0.1 10.5c-1.3 0-2.1-2.3-2.1-5.2s0.8-5.1 2.2-5.1 2.3-0.5 2.3 2.4c-0.1 3-1.1 7.9-2.4 7.9z"/>
				<polygon points="55.3 106.8 57.7 109.1 57.1 106.6 58 104.2" fill="#162983"/>
				
					<circle cx="43.2" cy="88.2" r="1.4" fill="#060"/>
					<circle cx="43.4" cy="88" r="1.1" fill="#0f3"/>
				
				
					<circle cx="47.3" cy="89.1" r="1.3" fill="#666"/>
					<circle cx="47.4" cy="89" r="1" fill="#ccc"/>
				
				
					<circle cx="43.8" cy="92.1" r="1.3"/>
					<circle cx="44" cy="92.1" r="1" fill="#333"/>
				
				
					<circle cx="17.1" cy="88.1" r="1.3" fill="#903"/>
					<circle cx="17.2" cy="87.9" r="1" fill="#f03"/>
				
				
					<circle cx="19.3" cy="90.5" r="1.3" fill="#903"/>
					<circle cx="19.4" cy="90.4" r="1" fill="#f03"/>
				
				<path d="m39.3 71.4s0.1 3.9 0.4 4.7 0.6 1.3 1.9 1.3 4-0.6 4-0.6 0.9 0 1-1.6 0.1-4.8 0.1-4.8 0-0.8-0.8-1-6.1-0.5-6.1-0.5z"/>
				<path d="m21.8 77s-5.2 1.9-5.9 1.5-0.7-2.4-0.8-3.9-0.8-2.6 0.8-3.2 4.3-1.5 4.5-1.4 2.2 6.6 1.4 7z"/>
				<polygon points="22.8 72.8 21.4 69.8 19.1 73.5 22.3 78.7" fill="#4f5bc9"/>
				<path d="m21.9 56.7s-2.7 1.3-5.4 5.6c0 0 6.1 1.5 5.9 3.9-0.1 2.4-3.7 7.4-3.7 7.4s2.2 3.3 2.8 4.5 1.7 5.2 1.7 5.2l0.3-2.3-3.9-7.3s3.3-5.8 3.3-7.2c-0.1-1.3-2.9-4.6-4.7-4.7-0.1-0.1 2.3-3.2 3.7-5.1z" fill="#162983"/>
				<polygon points="41.2 71.7 39 74.7 37.4 72.5 39.2 67.6" fill="#4f5bc9"/>
				<path d="m44.3 61.9c0.4-0.7-1-2.4-2.2-3.6l0.6-0.3c1.6 1.6 2.9 4.8 2.9 4.8s-3.5-0.9-6.3 3.2c-0.5 0.7 2.5 5.9 2.5 5.9s-4.1 4.5-4.1 7l-0.7 3.2-0.3-1.5s1.3-6.8 3.7-8.9c0 0-2.6-4.7-2-5.7 0.7-1 3.1-3.3 3.1-3.3s1.5-1 2.8-0.8z" fill="#162983"/>
			
			<polygon points="72.1 -4.1 72.1 239.3 -5.5 239.3 -1.7 5.3" fill="none"/>
			
				<path d="m24 62.2c2 6.5 10.2 7.8 13.6 0 0 0-1.6-6.5-1-11.3 0.7-4.8 0.8-5.4 0.8-5.4l-15.9-0.2s3.9 12.3 2.5 16.9z" fill="#dbaa73"/>
				<path d="m25.1 61.7c2 6.5 8.5 8.4 11.9 0.7 0 0-1.6-6.6-0.9-11.4s1.4-5.4 1.4-5.4l-8.1-0.2c-0.1-0.1-2.9 11.7-4.3 16.3z" fill="#e9caad"/>
			
			
				<path d="m26.6 51s-5.6-0.4-7.7 0.7c0 0 2.6-6.4-5.7-4.9 0 0 3.6-4.2-4.6-5.4 0 0 3.3-3.3 0.3-6.4s-3.6-3.9-3.6-3.9 7.5 3.6 1.3-4.4c0 0 5.6 1.9 5.7 0.3s-3.4-4.3-5.2-3.6c0 0 2.5-0.8 4-0.8 1.5 0.1 4.2-0.8 4-1.3s-2.6-2.5-5.6-3.5c0 0 6.6-3.8 9.3-3.6 0 0 2.3-7.4 4.6-9.8 0 0 0.5 5.3 1.2 6.6 0 0 5.9-7.3 10.6-9.1 0 0-4 9.2-0.8 8.6 3.3-0.6 7-1.1 9.1-0.8 0 0-6.6 5.2-2.8 5.2s8.9 1.4 8.9 1.4l-5.6 2s5.6 2.1 7.9 3.6c0 0-3.3 0.1-5.4 1.5 0 0 3.9 2.9 6.9 1.5 0 0-4.7 5.7-1.9 5.6 2.9-0.1 4.8-0.6 4.8-0.6s-5.1 4.1-4.9 4.9 3.3-0.2 3.3-0.2-3.6 2.9-4.2 4-2.1 3-0.4 5.4c0 0-5.9-0.4-4.3 4.9 0 0-5.4-1.7-8.9 1.3z" fill="#2e2a25"/>
				<path d="m14.4 30.2 2.2-1.5s0.1-3.5 1.3-5l0.4 1s1.4-3.8 2.6-4.4c0 0 4.3 0.4 6.1 1s2.8 0.7 4.7 0.1 5.9-1.7 6.6-1.5c0.8 0.3 1.3 0.6 1.3 1.8-0.1 1.3-0.2 3.6-0.2 3.6s3.6 0.7 3.5 3.1l1.8 0.8-0.6 4 2.1 1.2s2.6-0.1 3.3 1 0.7 4.7-1.7 6.1c-2.4 1.5-3.2 0-3.2 0s-3.1 7-8 10.6c-2.9 2.1-7.9 3.9-12.1 0.1s-4.3-3.8-6.4-6.8c-2-2.7-2-3.6-2-3.6s-3.9 0.4-4.5-2.9c-0.6-2.1 0.2-4.9 2.9-3.9z" fill="#dbaa73"/>
				<path d="m15.8 30.4 2.7-0.9s-1.5-2.9-0.4-4.4l1.5 1s0.3-3.2 1.5-3.7c0 0 4.2-0.7 6-0.1s2.7 0.1 4.6-0.4c1.8-0.5 5.7-1.7 6.5-1.4s1.3 0.5 1.2 1.8c-0.1 1.2-0.2 3.6-0.2 3.6s3.5 0.7 3.4 3.1l1.8 0.8-0.5 4 2 2.3s2.5-1.2 3.2-0.1 0.7 4.6-1.7 6-2.6-1.1-2.6-1.1-3.6 7.9-8.4 11.5c-2.8 2.1-7.2 3.8-11.3 0.1-4.2-3.8-4.2-3.8-6.3-6.7-1.9-2.7-2-4-2-4s-3.7 1.4-4.9-1.7c-0.9-2.2 0-5.6 3-4.2z" fill="#e9caad"/><g fill="#dbaa73">
				<path d="m27.8 31.8s1.3 1 1 2.9-1.5 5.2-1.5 5.6-0.2 1.5 0.8 1.9 2.2 0 2.2 0-1.7-0.2-2-0.5c-0.4-0.4-0.6-0.7-0.4-1.8 0.2-1.3 0.8-3.2 1.1-4.3 0.2-0.7 0.4-2.4-1.2-3.8z"/>
				<path d="m30.9 48.9s-0.9-1.6-3.8-1.6l0.1 0.7c-0.1 0 1.4-0.3 3.7 0.9z"/>
				<path d="m29 49.1s-1.1 0.4-1.2 0.1c-0.1-0.4 0.4-0.5 1.2-0.1z"/>
				<path d="m15.1 37.9s-0.3-1.3-0.8-1.6c-0.6-0.3-2.1-0.3-1.5 2s1.8 2.2 2.1 1.9 0.4-0.5 0.4-0.5-1.8 1.4-2.2-1.4c-0.3-2.2 0.8-1.5 0.8-1.5s-0.4 1-0.1 1.5 0.5 0.7 0.5 0.7-1-2.6 0.8-1.1z"/>
				<path d="m46 37.9s0.3-1.3 0.9-1.6 2.4-0.3 1.7 2-2 2.2-2.3 1.9l-0.5-0.5s2 1.4 2.5-1.4c0.4-2.2-0.9-1.5-0.9-1.5s0.4 1 0.1 1.5-0.5 0.7-0.5 0.7 1-2.6-1-1.1z"/>
				</g><path d="m17 29.6s5-2.5 6-2.4c1.1 0 3.6 1.4 4.5 1.4 0 0-3 0.2-3.9 0.1s-6.6 0.9-6.6 0.9z" fill="#2e2a25"/>
				<path d="m30.5 27.6s0.7 2.5 3.7 2.3 5.8-0.3 6.3-0.2c0 0-2-0.7-3.3-0.8-1.2-0.2-6.2-1.1-6.7-1.3z" fill="#2e2a25"/>
				<path d="m46.2 16.1c-1.5-0.2-4-0.5-5.4-0.3-2 0.3-2.4 0.7-2.4 0.7s4.9-0.7 7.8-0.4zm0 0c0.7 0.1 1.2 0.2 1.2 0.2-0.3-0.2-0.7-0.2-1.2-0.2zm-2.8 3.1c-1.5 0.2-2.1 0.9-2.1 0.9s3.6-0.7 8.7 1.3c0 0-5.1-2.4-6.6-2.2zm8 6.7c-1.6 0.6-4.2-1.4-4.2-1.4 2.5 3.4 4.2 1.4 4.2 1.4zm-0.2 5.3c-1.4 0.1-1.3-2.4-1.3-2.4-1.1 5.3 4.2 1.8 4.2 1.8s-1.5 0.5-2.9 0.6zm-16.6-19.6c-0.8 0.5-0.9 1.5-0.9 1.5s1.9-1.7 7.2-2.8c-0.1-0.1-5.6 0.8-6.3 1.3zm-1.2-7.8s-5.6 5.1-7.5 7.5c-0.7 0.9-0.8 2.5-0.8 2.5-0.7-0.1-2-4.4-2-4.4s0.6 5.6 2.8 7.1c0.1 0-1-3.8 7.5-12.7zm-21.8 13.8c3.2-1.4 4.5-0.8 4.5-0.8 0.3-0.7 2-1.4 2-1.4-1.8-0.6-6.5 2.2-6.5 2.2zm17.9 3.8s3.1-0.2 3.9-1.4c0.9-1.4 1.6-3.6 1.6-3.6s-1.7 3.1-5.5 5zm-19 1.8c3.9 1 4.8-1.3 4.8-1.3s-0.3 0.3-1.7 0.8-3.1 0.5-3.1 0.5zm2 4.6c-0.5 1-4.1 0-4.1 0 5.5 3 4.6-1 4.6-1s-0.1 0-0.5 1z" fill="#e2001a"/>
				
					<path d="m45.5 34.2-4.6-0.3 0.1-0.9c0-0.2-0.4-0.4-0.7-0.4h-8.6c-0.2 0-0.4 0.2-0.4 0.4l0.1 1.4c-0.5-0.3-2.2-1.1-3.6 0.1l0.1-1.5c0-0.2-0.2-0.4-0.4-0.4h-8.6c-0.2 0-0.7 0.2-0.7 0.4v1l-3.7 0.6v0.5h3.7l0.1 2.2c0 0.2 0.2 0.4 0.4 0.4h8.4c0.2 0 0.4-0.2 0.4-0.4l0.2-2.2c1.5-1.5 3.2-0.4 3.7-0.1l0.2 2.3c0 0.2 0.2 0.4 0.4 0.4h8.4c0.2 0 0.4-0.2 0.4-0.4l0.1-2.2 5.3-0.3z" fill="#1a171b"/>
					<path d="m26.7 32.8-7.6 0.1c-1 0.8-0.3 4-0.3 4 0 0.2 0.2 0.4 0.4 0.4h7.7c0.2 0 0.4-0.2 0.4-0.4l0.2-3.7c0-0.3-0.6-0.4-0.8-0.4zm13.4 0.1-7.6-0.1c-0.2 0-0.8 0.2-0.8 0.4l0.2 3.7c0 0.2 0.2 0.4 0.4 0.4h7.7c0.2 0 0.4-0.2 0.4-0.4-0.1-0.1 0.7-3.2-0.3-4z" fill="#fff"/>
				
			
		</g>
	
</g>
</svg>
