<?xml version="1.0" encoding="UTF-8"?><svg id="Layer_1" xmlns="http://www.w3.org/2000/svg" viewBox="0 0 1200 150"><defs><style>.cls-1{fill:none;}.cls-2{fill:#fafaff;}</style></defs><rect class="cls-1" width="1200" height="150"/><g><path class="cls-2" d="m306.44,87.6h23.16v62.4h13.56v-62.4h23.04c.6,0,.96-.36.84-1.08l-1.08-10.2c-.12-.72-.36-.96-1.08-.96h-56.52c-.72,0-.96.24-1.08.84l-1.44,10.44c-.12.6,0,.96.6.96Z"/><path class="cls-2" d="m245.96,150h37.2c6.87-4.58,11.28-12.61,11.28-25.08v-48.6c0-.72-.24-.96-.96-.96h-11.64c-.72,0-.96.24-.96.96v47.88c0,14.28-6.84,18.72-15.84,18.72-10.92,0-16.56-7.08-16.56-18.48v-48.24c0-.6-.12-.84-.84-.84h-11.76c-.72,0-.84.24-.84.96v49.2c0,11.74,4.01,19.81,10.92,24.48Z"/><path class="cls-2" d="m14.13,150l5.64-17.64h27.24l5.81,17.64h14.2l-25.3-74.04c-.12-.48-.24-.6-.84-.6h-15.6c-.48,0-.72.24-.72.72-.12,3.84-.48,4.92-.84,6.12L1.01,150h13.11Zm19.08-63.24h.12c2.16,8.4,7.8,25.32,10.2,33.36h-20.28c3.6-11.28,8.04-25.44,9.96-33.36Z"/><path class="cls-2" d="m122.77,150c7.82-4.02,12.44-10.86,12.44-19.92,0-11.04-6.96-16.32-11.52-18.6,3.12-2.28,7.68-7.2,7.68-15.72,0-7.68-3.96-20.64-27.96-20.64-7.68,0-17.88.24-21.84.36-.6.12-.6.36-.6.96v73.56h41.8Zm-28.6-63.12c2.28-.12,5.4-.24,9-.24,9.6,0,15,3.6,15,10.92,0,5.04-2.16,7.92-4.8,10.08-1.8-.36-6.36-.72-10.44-.72h-8.76v-20.04Zm0,31.8h10.2c3.12,0,5.88.24,8.04.84,6.24,1.56,8.88,5.64,8.88,10.8,0,8.64-7.56,12.36-18.48,12.36-3.36,0-6.12-.12-8.64-.24v-23.76Z"/><path class="cls-2" d="m165.19,150h36.65c10.47-6.45,16.84-18.99,16.76-36-.12-22.44-12.84-39.84-34.92-39.84-20.88,0-35.16,16.68-35.16,40.2,0,16.23,6,29.03,16.67,35.64Zm18.25-63.72c13.32,0,21.12,10.92,21.24,28.08,0,17.28-7.56,28.56-20.64,28.56-14.16,0-21.6-12.6-21.6-28.56,0-18.36,8.88-28.08,21-28.08Z"/></g></svg>