<?xml version="1.0" encoding="UTF-8"?><svg id="Layer_1" xmlns="http://www.w3.org/2000/svg" viewBox="0 0 1200 150"><defs><style>.cls-1{fill:none;}.cls-2{fill:#fafaff;}</style></defs><rect class="cls-1" width="1200" height="150"/><g><path class="cls-2" d="m554.84,150h44.4v-38.76c0-.6-.12-.96-.96-.96h-25.92c-.48,0-.72.24-.72.84v9.96c0,.6.12.84.84.96l13.2.36v19.56c-2.28.72-4.92,1.08-8.76,1.08-17.64,0-26.88-12.24-26.88-28.44,0-17.76,10.08-28.44,28.68-28.32,6.72.12,12.6.84,17.64,3.36.48.24.96.12.96-.6v-10.8c0-.72-.24-1.08-.72-1.32-4.08-1.92-10.68-2.76-18.12-2.76-25.32,0-42.36,15.84-42.36,40.92,0,15.17,6.19,28.18,18.71,34.92Z"/><path class="cls-2" d="m519.44,150v-73.8c0-.6-.24-.84-.84-.84h-11.76c-.6,0-.84.12-.84.84v73.8h13.44Z"/><path class="cls-2" d="m630.68,150v-37.8c0-10.56-.12-16.44-.6-22.2h.12c4.02,10.49,22.95,45.31,30.32,60h18.28v-73.68c0-.72-.24-.96-.96-.96h-10.8c-.72,0-.96.24-.96.96v40.32c0,10.56.24,15.24.36,18.72h-.12c-3.84-8.64-21.96-43.44-30.48-59.16-.36-.72-.48-.84-1.32-.84h-15.72c-.6,0-.72.24-.72.84v73.8h12.6Z"/><path class="cls-2" d="m480.36,150c5.9-3.97,9.2-10.13,9.2-17.76,0-9.12-4.2-16.56-19.08-23.28l-4.44-1.92c-9.24-4.2-11.88-7.44-11.88-11.88s3.24-9,13.44-9c6.48,0,12.72,1.32,17.04,3.84.6.48.96,0,.96-.48v-10.92c0-.72-.12-1.2-.6-1.44-3.72-1.92-9.96-3-17.4-3-17.28,0-26.52,9.6-26.52,22.08,0,8.88,3.6,16.2,17.64,22.56l5.28,2.4c9.12,4.2,11.88,7.68,11.88,12.24,0,5.4-4.08,9.48-13.8,9.48-6.72,0-14.04-1.92-20.16-5.88-.48-.36-.96-.12-.96.48v11.64c0,.34.05.6.14.84h39.26Z"/><path class="cls-2" d="m94.17,150v-26.88h10.08c1.32,0,1.92.6,2.76,2.04,4.44,7.26,10.99,18.24,14.96,24.84h16.04c-4.93-8.3-16.3-25.81-19.72-30.72,8.28-3.12,15.12-10.32,15.12-20.88,0-15.12-11.04-23.28-29.4-23.28-9,0-14.28.12-22.32.36-.6,0-.72.48-.72.96v73.56h13.2Zm0-62.76c1.92-.12,5.52-.36,9.36-.36,10.2,0,16.32,4.08,16.32,12.24,0,7.68-5.76,12.36-15.6,12.36h-10.08v-24.24Z"/><path class="cls-2" d="m14.13,150l5.64-17.64h27.24l5.81,17.64h14.2l-25.3-74.04c-.12-.48-.24-.6-.84-.6h-15.6c-.48,0-.72.24-.72.72-.12,3.84-.48,4.92-.84,6.12L1.01,150h13.11Zm19.08-63.24h.12c2.16,8.4,7.8,25.32,10.2,33.36h-20.28c3.6-11.28,8.04-25.44,9.96-33.36Z"/><path class="cls-2" d="m143.13,87.6h23.16v62.4h13.56v-62.4h23.04c.6,0,.96-.36.84-1.08l-1.08-10.2c-.12-.72-.36-.96-1.08-.96h-56.52c-.72,0-.96.24-1.08.84l-1.44,10.44c-.12.6,0,.96.6.96Z"/><path class="cls-2" d="m427.23,150l1.13-7.56c.12-.6,0-.84-.72-.84h-34.8v-21.72h29.64c.6,0,.96-.12.96-.84v-10.56c0-.6-.36-.84-.84-.84h-29.76v-20.04h32.76c.72,0,.96-.48.84-1.08l-1.2-10.44c-.12-.6-.36-.72-1.08-.72h-43.92c-.72,0-.84.24-.84.96v73.68h47.83Z"/><path class="cls-2" d="m341.16,150c12.02-5.51,21.68-17,21.68-36.84,0-22.32-13.68-38.04-40.56-38.04-10.2,0-18,.24-21.24.36-.6.12-.72.36-.72.96v73.56h40.84Zm-27.4-62.88c2.76-.12,5.28-.24,8.4-.24,15.48,0,26.76,8.52,26.64,26.64,0,18.96-11.28,28.8-27.36,28.8-2.88,0-5.4-.12-7.68-.24v-54.96Z"/><path class="cls-2" d="m221.58,150h29.19v-8.64c0-.6-.12-.84-.6-.6-2.4.96-5.52,1.56-9.48,1.56-9.84,0-14.64-5.64-14.64-12.6,0-7.8,6.72-11.76,10.56-12,2.88,1.32,11.04,10.08,19.56,22.92,2.77,4.21,5.25,7.22,7.65,9.36h20.55v-7.08c0-.48-.24-.72-.72-.6-.84.12-2.04.24-3.12.24-5.16,0-8.76-2.4-13.32-8.76-3.6-5.28-9.84-13.2-13.32-16.56h25.08c.72,0,.96-.24,1.08-.96l1.68-10.08c.12-.6,0-.96-.72-.96h-37.08c-5.04-4.08-8.4-7.92-8.4-11.64,0-4.92,3.36-7.68,10.44-7.68,5.4,0,9.36,1.2,12.12,2.64.48.36.96.12.96-.6v-10.2c0-.6-.12-1.08-.6-1.44-3-1.56-7.56-2.28-13.08-2.28-13.68,0-23.04,7.44-23.04,19.32,0,6.72,3.36,11.52,6.72,15.24-8.4,3.12-16.68,10.44-16.68,22.44,0,8.37,3.5,14.87,9.21,18.96Z"/></g></svg>