<?xml version="1.0" encoding="UTF-8"?><svg id="Layer_1" xmlns="http://www.w3.org/2000/svg" viewBox="0 0 1200 150"><defs><style>.cls-1{fill:none;}.cls-2{fill:#fafaff;}</style></defs><rect class="cls-1" width="1200" height="150"/><g><path class="cls-2" d="m298.92,150l5.64-17.64h27.24l5.81,17.64h14.2l-25.29-74.04c-.12-.48-.24-.6-.84-.6h-15.6c-.48,0-.72.24-.72.72-.12,3.84-.48,4.92-.84,6.12l-22.71,67.8h13.11Zm19.08-63.24h.12c2.16,8.4,7.8,25.32,10.2,33.36h-20.28c3.6-11.28,8.04-25.44,9.96-33.36Z"/><path class="cls-2" d="m427.79,87.6h23.16v62.4h13.56v-62.4h23.04c.6,0,.96-.36.84-1.08l-1.08-10.2c-.12-.72-.36-.96-1.08-.96h-56.52c-.72,0-.96.24-1.08.84l-1.44,10.44c-.12.6,0,.96.6.96Z"/><path class="cls-2" d="m378.8,150h36.99v-8.52c0-.72-.36-.72-.84-.6-4.08,1.44-8.16,1.92-13.8,1.92-11.88,0-26.88-6.96-26.88-28.56,0-17.16,10.56-27.96,26.76-27.96,6,0,11.04.84,14.52,2.52.48.12.96.12.96-.72v-10.68c0-.72-.24-1.08-.72-1.32-2.76-1.32-7.32-1.92-14.52-1.92-24.96,0-41.04,16.44-41.04,40.56,0,17.82,7.6,29.32,18.56,35.28Z"/><path class="cls-2" d="m227.4,87.6h23.16v62.4h13.56v-62.4h23.04c.6,0,.96-.36.84-1.08l-1.08-10.2c-.12-.72-.36-.96-1.08-.96h-56.52c-.72,0-.96.24-1.08.84l-1.44,10.44c-.12.6,0,.96.6.96Z"/><path class="cls-2" d="m83.38,150h36.65c10.47-6.45,16.84-18.99,16.76-36-.12-22.44-12.84-39.84-34.92-39.84-20.88,0-35.16,16.68-35.16,40.2,0,16.23,6,29.03,16.67,35.64Zm18.25-63.72c13.32,0,21.12,10.92,21.24,28.08,0,17.28-7.56,28.56-20.64,28.56-14.16,0-21.6-12.6-21.6-28.56,0-18.36,8.88-28.08,21-28.08Z"/><path class="cls-2" d="m18.56,150h36.99v-8.52c0-.72-.36-.72-.84-.6-4.08,1.44-8.16,1.92-13.8,1.92-11.88,0-26.88-6.96-26.88-28.56,0-17.16,10.56-27.96,26.76-27.96,6,0,11.04.84,14.52,2.52.48.12.96.12.96-.72v-10.68c0-.72-.24-1.08-.72-1.32-2.76-1.32-7.32-1.92-14.52-1.92C16.08,74.16,0,90.6,0,114.72c0,17.82,7.6,29.32,18.56,35.28Z"/><path class="cls-2" d="m166.2,150v-37.8c0-10.56-.12-16.44-.6-22.2h.12c4.02,10.49,22.95,45.31,30.32,60h18.28v-73.68c0-.72-.24-.96-.96-.96h-10.8c-.72,0-.96.24-.96.96v40.32c0,10.56.24,15.24.36,18.72h-.12c-3.84-8.64-21.96-43.44-30.48-59.16-.36-.72-.48-.84-1.32-.84h-15.72c-.6,0-.72.24-.72.84v73.8h12.6Z"/></g></svg>