<?xml version="1.0" encoding="UTF-8"?><svg id="Layer_1" xmlns="http://www.w3.org/2000/svg" viewBox="0 0 1200 150"><defs><style>.cls-1{fill:none;}.cls-2{fill:#fafaff;}</style></defs><rect class="cls-1" width="1200" height="150"/><g><path class="cls-2" d="m497.39,150v-22.2h7.08c17.52,0,31.8-8.28,31.8-27,0-13.32-8.76-25.68-30.84-25.68-8.16,0-16.32.12-20.88.36-.48,0-.6.24-.6.84v73.68h13.44Zm0-62.76c1.32-.12,4.56-.36,8.4-.36,10.8,0,17.04,5.28,17.04,14.28,0,11.16-8.4,14.76-18.36,14.76-3.6,0-5.16,0-7.08-.12v-28.56Z"/><path class="cls-2" d="m680.59,150h36.99v-8.52c0-.72-.36-.72-.84-.6-4.08,1.44-8.16,1.92-13.8,1.92-11.88,0-26.88-6.96-26.88-28.56,0-17.16,10.56-27.96,26.76-27.96,6,0,11.04.84,14.52,2.52.48.12.96.12.96-.72v-10.68c0-.72-.24-1.08-.72-1.32-2.76-1.32-7.32-1.92-14.52-1.92-24.96,0-41.04,16.44-41.04,40.56,0,17.82,7.6,29.32,18.56,35.28Z"/><path class="cls-2" d="m565.19,150v-30.84h32.28v30.84h13.44v-73.8c0-.6-.24-.84-.72-.84h-11.88c-.6,0-.84.24-.84.84v30.72h-32.28v-30.72c0-.6-.24-.84-.96-.84h-11.52c-.72,0-.96.24-.96.96v73.68h13.44Z"/><path class="cls-2" d="m645.47,150v-73.8c0-.6-.24-.84-.84-.84h-11.76c-.6,0-.84.12-.84.84v73.8h13.44Z"/><path class="cls-2" d="m191.38,150h36.65c10.47-6.45,16.84-18.99,16.76-36-.12-22.44-12.84-39.84-34.92-39.84-20.88,0-35.16,16.68-35.16,40.2,0,16.23,6,29.03,16.66,35.64Zm18.25-63.72c13.32,0,21.12,10.92,21.24,28.08,0,17.28-7.56,28.56-20.64,28.56-14.16,0-21.6-12.6-21.6-28.56,0-18.36,8.88-28.08,21-28.08Z"/><path class="cls-2" d="m47.16,150v-37.8c0-10.56-.12-16.44-.6-22.2h.12c4.02,10.49,22.95,45.31,30.32,60h18.28v-73.68c0-.72-.24-.96-.96-.96h-10.8c-.72,0-.96.24-.96.96v40.32c0,10.56.24,15.24.36,18.72h-.12c-3.84-8.64-21.96-43.44-30.48-59.16-.36-.72-.48-.84-1.32-.84h-15.72c-.6,0-.72.24-.72.84v73.8h12.6Z"/><path class="cls-2" d="m13.44,150v-73.8c0-.6-.24-.84-.84-.84H.84c-.6,0-.84.12-.84.84v73.8h13.44Z"/><path class="cls-2" d="m129.84,150v-28.44h29.28c.6,0,.84-.24.84-.84v-10.56c0-.6-.24-.84-.84-.84h-29.28v-21.72h32.64c.72,0,.96-.24.84-.96l-1.08-10.44c-.12-.72-.36-.84-.96-.84h-44.16c-.6,0-.72.24-.72.84v73.8h13.44Z"/><path class="cls-2" d="m417.11,150l5.64-17.64h27.24l5.81,17.64h14.2l-25.29-74.04c-.12-.48-.24-.6-.84-.6h-15.6c-.48,0-.72.24-.72.72-.12,3.84-.48,4.92-.84,6.12l-22.71,67.8h13.11Zm19.08-63.24h.12c2.16,8.4,7.8,25.32,10.2,33.36h-20.28c3.6-11.28,8.04-25.44,9.96-33.36Z"/><path class="cls-2" d="m353.39,150v-26.88h10.08c1.32,0,1.92.6,2.76,2.04,4.44,7.26,10.99,18.24,14.96,24.84h16.04c-4.93-8.3-16.3-25.81-19.72-30.72,8.28-3.12,15.12-10.32,15.12-20.88,0-15.12-11.04-23.28-29.4-23.28-9,0-14.28.12-22.32.36-.6,0-.72.48-.72.96v73.56h13.2Zm0-62.76c1.92-.12,5.52-.36,9.36-.36,10.2,0,16.32,4.08,16.32,12.24,0,7.68-5.76,12.36-15.6,12.36h-10.08v-24.24Z"/><path class="cls-2" d="m276.95,150h44.4v-38.76c0-.6-.12-.96-.96-.96h-25.92c-.48,0-.72.24-.72.84v9.96c0,.6.12.84.84.96l13.2.36v19.56c-2.28.72-4.92,1.08-8.76,1.08-17.64,0-26.88-12.24-26.88-28.44,0-17.76,10.08-28.44,28.68-28.32,6.72.12,12.6.84,17.64,3.36.48.24.96.12.96-.6v-10.8c0-.72-.24-1.08-.72-1.32-4.08-1.92-10.68-2.76-18.12-2.76-25.32,0-42.36,15.84-42.36,40.92,0,15.17,6.19,28.18,18.71,34.92Z"/></g></svg>