<?xml version="1.0" encoding="UTF-8"?><svg id="Layer_1" xmlns="http://www.w3.org/2000/svg" viewBox="0 0 1200 150"><defs><style>.cls-1{fill:none;}.cls-2{fill:#fafaff;}</style></defs><rect class="cls-1" width="1200" height="150"/><g><path class="cls-2" d="m450.95,87.6h23.16v62.4h13.56v-62.4h23.04c.6,0,.96-.36.84-1.08l-1.08-10.2c-.12-.72-.36-.96-1.08-.96h-56.52c-.72,0-.96.24-1.08.84l-1.44,10.44c-.12.6,0,.96.6.96Z"/><path class="cls-2" d="m537.47,150v-73.8c0-.6-.24-.84-.84-.84h-11.76c-.6,0-.84.12-.84.84v73.8h13.44Z"/><path class="cls-2" d="m833.63,150v-73.8c0-.6-.24-.84-.84-.84h-11.76c-.6,0-.84.12-.84.84v73.8h13.44Z"/><path class="cls-2" d="m751.68,150h37.18c6.88-4.58,11.29-12.6,11.29-25.08v-48.6c0-.72-.24-.96-.96-.96h-11.64c-.72,0-.96.24-.96.96v47.88c0,14.28-6.84,18.72-15.84,18.72-10.92,0-16.56-7.08-16.56-18.48v-48.24c0-.6-.12-.84-.84-.84h-11.76c-.72,0-.84.24-.84.96v49.2c0,11.75,4.02,19.81,10.93,24.48Z"/><path class="cls-2" d="m679.14,150l1.13-7.56c.12-.6,0-.84-.72-.84h-34.8v-21.72h29.64c.6,0,.96-.12.96-.84v-10.56c0-.6-.36-.84-.84-.84h-29.76v-20.04h32.76c.72,0,.96-.48.84-1.08l-1.2-10.44c-.12-.6-.36-.72-1.08-.72h-43.92c-.72,0-.84.24-.84.96v73.68h47.83Z"/><path class="cls-2" d="m575.86,150h17.63l25.1-73.68c.24-.72-.12-.96-.72-.96h-12.12c-.6,0-.84.24-.96.84-11.28,34.44-17.04,54.84-19.44,63.96h-.24c-2.04-8.64-9.48-31.8-20.52-64.08-.12-.6-.36-.72-.96-.72h-12.72c-.84,0-.96.36-.72.96l25.67,73.68Z"/><path class="cls-2" d="m704.08,150l20.83-79.32c.12-.48,0-.6-.48-.6h-9.48c-.36,0-.6,0-.72.48l-20.97,79.44h10.82Z"/><path class="cls-2" d="m108.36,87.6h23.16v62.4h13.56v-62.4h23.04c.6,0,.96-.36.84-1.08l-1.08-10.2c-.12-.72-.36-.96-1.08-.96h-56.52c-.72,0-.96.24-1.08.84l-1.44,10.44c-.12.6,0,.96.6.96Z"/><path class="cls-2" d="m47.16,150v-37.8c0-10.56-.12-16.44-.6-22.2h.12c4.01,10.48,22.94,45.3,30.32,60h18.28v-73.68c0-.72-.24-.96-.96-.96h-10.8c-.72,0-.96.24-.96.96v40.32c0,10.56.24,15.24.36,18.72h-.12c-3.84-8.64-21.96-43.44-30.48-59.16-.36-.72-.48-.84-1.32-.84h-15.72c-.6,0-.72.24-.72.84v73.8h12.6Z"/><path class="cls-2" d="m401.94,150h37.01v-8.52c0-.72-.36-.72-.84-.6-4.08,1.44-8.16,1.92-13.8,1.92-11.88,0-26.88-6.96-26.88-28.56,0-17.16,10.56-27.96,26.76-27.96,6,0,11.04.84,14.52,2.52.48.12.96.12.96-.72v-10.68c0-.72-.24-1.08-.72-1.32-2.76-1.32-7.32-1.92-14.52-1.92-24.96,0-41.04,16.44-41.04,40.56,0,17.81,7.59,29.32,18.54,35.28Z"/><path class="cls-2" d="m13.44,76.2c0-.6-.24-.84-.84-.84H.84c-.6,0-.84.12-.84.84v73.8h13.44v-73.8Z"/><path class="cls-2" d="m322.08,150l5.64-17.64h27.24l5.81,17.64h14.2l-25.3-74.04c-.12-.48-.24-.6-.84-.6h-15.6c-.48,0-.72.24-.72.72-.12,3.84-.48,4.92-.84,6.12l-22.71,67.8h13.11Zm19.08-63.24h.12c2.16,8.4,7.8,25.32,10.2,33.36h-20.28c3.6-11.28,8.04-25.44,9.96-33.36Z"/><path class="cls-2" d="m229.27,150l1.13-7.56c.12-.6,0-.84-.72-.84h-34.8v-21.72h29.64c.6,0,.96-.12.96-.84v-10.56c0-.6-.36-.84-.84-.84h-29.76v-20.04h32.76c.72,0,.96-.48.84-1.08l-1.2-10.44c-.12-.6-.36-.72-1.08-.72h-43.92c-.72,0-.84.24-.84.96v73.68h47.83Z"/><path class="cls-2" d="m258.36,150v-26.88h10.08c1.32,0,1.92.6,2.76,2.04,4.44,7.27,10.99,18.24,14.96,24.84h16.04c-4.93-8.3-16.3-25.81-19.72-30.72,8.28-3.12,15.12-10.32,15.12-20.88,0-15.12-11.04-23.28-29.4-23.28-9,0-14.28.12-22.32.36-.6,0-.72.48-.72.96v73.56h13.2Zm0-62.76c1.92-.12,5.52-.36,9.36-.36,10.2,0,16.32,4.08,16.32,12.24,0,7.68-5.76,12.36-15.6,12.36h-10.08v-24.24Z"/></g></svg>