<?xml version="1.0" encoding="UTF-8"?><svg id="Layer_1" xmlns="http://www.w3.org/2000/svg" viewBox="0 0 1200 150"><defs><style>.cls-1{fill:none;}.cls-2{fill:#fafaff;}</style></defs><rect class="cls-1" width="1200" height="150"/><g><path class="cls-2" d="m13,150c1.05-24.83,2.15-53.95,2.15-64.68h.24c3.07,13.2,11.75,45.78,16.93,64.68h15.03c5.26-17.78,16.18-54.14,18.55-64.56h.24c-.12,6.93.1,39.15.76,64.56h13.88l-3.12-73.92c-.12-.6-.24-.72-.84-.72h-17.4c-.6,0-.84.24-.96.84-3.6,12.12-15.36,48.84-17.88,59.16h-.12c-2.28-11.28-12.6-47.4-16.08-59.28-.24-.6-.36-.72-1.08-.72H5.43c-.48,0-.84,0-.84.72L.21,150h12.79Z"/><path class="cls-2" d="m376.71,150v-37.8c0-10.56-.12-16.44-.6-22.2h.12c4.02,10.49,22.95,45.31,30.32,60h18.28v-73.68c0-.72-.24-.96-.96-.96h-10.8c-.72,0-.96.24-.96.96v40.32c0,10.56.24,15.24.36,18.72h-.12c-3.84-8.64-21.96-43.44-30.48-59.16-.36-.72-.48-.84-1.32-.84h-15.72c-.6,0-.72.24-.72.84v73.8h12.6Z"/><path class="cls-2" d="m113.17,150h36.65c10.47-6.45,16.84-18.99,16.76-36-.12-22.44-12.84-39.84-34.92-39.84-20.88,0-35.16,16.68-35.16,40.2,0,16.23,6,29.03,16.67,35.64Zm18.25-63.72c13.32,0,21.12,10.92,21.24,28.08,0,17.28-7.56,28.56-20.64,28.56-14.16,0-21.6-12.6-21.6-28.56,0-18.36,8.88-28.08,21-28.08Z"/><path class="cls-2" d="m174.03,87.6h23.16v62.4h13.56v-62.4h23.04c.6,0,.96-.36.84-1.08l-1.08-10.2c-.12-.72-.36-.96-1.08-.96h-56.52c-.72,0-.96.24-1.08.84l-1.44,10.44c-.12.6,0,.96.6.96Z"/><path class="cls-2" d="m260.55,150v-73.8c0-.6-.24-.84-.84-.84h-11.76c-.6,0-.84.12-.84.84v73.8h13.44Z"/><path class="cls-2" d="m293.89,150h36.65c10.47-6.45,16.84-18.99,16.76-36-.12-22.44-12.84-39.84-34.92-39.84-20.88,0-35.16,16.68-35.16,40.2,0,16.23,6,29.03,16.67,35.64Zm18.25-63.72c13.32,0,21.12,10.92,21.24,28.08,0,17.28-7.56,28.56-20.64,28.56-14.16,0-21.6-12.6-21.6-28.56,0-18.36,8.88-28.08,21-28.08Z"/></g></svg>